<svg width="31" height="31" viewBox="0 0 31 31" fill="none" xmlns="http://www.w3.org/2000/svg">
<path d="M29.064 15.8021C29.064 14.6869 28.9717 13.8732 28.7719 13.0293H15.7783V18.0624H23.4052C23.2515 19.3132 22.4212 21.1969 20.5759 22.4627L20.55 22.6312L24.6584 25.7502L24.943 25.778C27.557 23.4121 29.064 19.9311 29.064 15.8021" fill="#4285F4"/>
<path d="M15.7771 29.0619C19.5137 29.0619 22.6505 27.8563 24.9418 25.7767L20.5747 22.4613C19.4061 23.26 17.8376 23.8176 15.7771 23.8176C12.1175 23.8176 9.01134 21.4517 7.9041 18.1816L7.7418 18.1951L3.46993 21.4351L3.41406 21.5873C5.68982 26.0177 10.3644 29.0619 15.7771 29.0619Z" fill="#34A853"/>
<path d="M7.90468 18.1822C7.61252 17.3383 7.44344 16.434 7.44344 15.4998C7.44344 14.5654 7.61252 13.6613 7.88931 12.8174L7.88157 12.6377L3.55615 9.3457L3.41463 9.41167C2.47668 11.2502 1.93848 13.3147 1.93848 15.4998C1.93848 17.6848 2.47668 19.7493 3.41463 21.5878L7.90468 18.1822" fill="#FBBC05"/>
<path d="M15.7772 7.18163C18.3759 7.18163 20.1288 8.28169 21.1284 9.20099L25.0341 5.46375C22.6354 3.27869 19.5138 1.9375 15.7772 1.9375C10.3645 1.9375 5.68984 4.9815 3.41406 9.41188L7.88876 12.8176C9.01138 9.54756 12.1175 7.18163 15.7772 7.18163" fill="#EB4335"/>
</svg>
