<svg width="49" height="40" viewBox="0 0 49 40" fill="none" xmlns="http://www.w3.org/2000/svg">
<g clip-path="url(#clip0_3014_2781)">
<path d="M36.625 18L34.425 8H14.825L12.649 17.783L12.625 19C12.6286 19.9653 12.9842 20.8961 13.625 21.618V29C13.625 29.7956 13.9411 30.5587 14.5037 31.1213C15.0663 31.6839 15.8294 32 16.625 32H32.625C33.4206 32 34.1837 31.6839 34.7463 31.1213C35.3089 30.5587 35.625 29.7956 35.625 29V21.618C36.2658 20.8961 36.6214 19.9653 36.625 19V18ZM14.625 18.109L16.425 10H19.625V14H21.625V10H27.625V14H29.625V10H32.825L34.625 18.109V19C34.625 19.5304 34.4143 20.0391 34.0392 20.4142C33.6641 20.7893 33.1554 21 32.625 21H31.625C31.0946 21 30.5859 20.7893 30.2108 20.4142C29.8357 20.0391 29.625 19.5304 29.625 19H27.625C27.625 19.5304 27.4143 20.0391 27.0392 20.4142C26.6641 20.7893 26.1554 21 25.625 21H23.625C23.0946 21 22.5859 20.7893 22.2108 20.4142C21.8357 20.0391 21.625 19.5304 21.625 19H19.625C19.625 19.5304 19.4143 20.0391 19.0392 20.4142C18.6641 20.7893 18.1554 21 17.625 21H16.625C16.0946 21 15.5859 20.7893 15.2108 20.4142C14.8357 20.0391 14.625 19.5304 14.625 19V18.109ZM32.625 30H16.625C16.3598 30 16.1054 29.8946 15.9179 29.7071C15.7304 29.5196 15.625 29.2652 15.625 29V22.858C15.9509 22.9481 16.287 22.9958 16.625 23H17.625C18.1949 22.9982 18.7577 22.8738 19.2753 22.6354C19.793 22.3969 20.2532 22.0499 20.625 21.618C20.9968 22.0499 21.457 22.3969 21.9747 22.6354C22.4923 22.8738 23.0551 22.9982 23.625 23H25.625C26.1928 23.0003 26.7542 22.8794 27.2715 22.6454C27.7889 22.4114 28.2503 22.0696 28.625 21.643C28.9997 22.0696 29.4611 22.4114 29.9785 22.6454C30.4958 22.8794 31.0572 23.0003 31.625 23H32.625C32.963 22.9958 33.2991 22.9481 33.625 22.858V29C33.625 29.2652 33.5196 29.5196 33.3321 29.7071C33.1446 29.8946 32.8902 30 32.625 30Z" fill="#676D75"/>
</g>
<defs>
<clipPath id="clip0_3014_2781">
<rect width="24" height="24" fill="white" transform="translate(12.625 8)"/>
</clipPath>
</defs>
</svg>
