<svg width="25" height="24" viewBox="0 0 25 24" fill="none" xmlns="http://www.w3.org/2000/svg">
<g clip-path="url(#clip0_3099_2616)">
<path d="M24.661 19.4913L17.588 1.83528C16.964 0.306283 15.212 -0.433717 13.677 0.190283L12.752 0.568283C12.503 0.670283 12.28 0.812283 12.072 0.970283C11.524 0.376283 10.746 -0.00171686 9.876 -0.00171686H3.875C2.221 -0.00071686 0.875 1.34528 0.875 2.99928V20.9993C0.875 22.6533 2.221 23.9993 3.875 23.9993H9.875C11.529 23.9993 12.875 22.6533 12.875 20.9993V8.89428L18.179 22.1363C18.804 23.6793 20.596 24.3963 22.088 23.7773L23.014 23.3993C24.519 22.8253 25.3 20.9643 24.661 19.4913ZM14.449 7.44528L17.227 6.31328L21.398 16.7253L18.62 17.8573L14.449 7.44528ZM13.507 2.42028L14.432 2.04228C14.928 1.83628 15.529 2.07328 15.734 2.58528L16.484 4.45628L13.707 5.58828L12.96 3.72228C12.752 3.21228 12.998 2.62728 13.509 2.41928L13.507 2.42028ZM2.875 6.99928H5.875V16.9993H2.875V6.99928ZM7.875 6.99928H10.875V16.9993H7.875V6.99928ZM10.875 2.99928V4.99928H7.875V1.99928H9.875C10.426 1.99928 10.875 2.44728 10.875 2.99928ZM3.875 1.99928H5.875V4.99928H2.875V2.99928C2.875 2.44728 3.324 1.99928 3.875 1.99928ZM2.875 20.9993V18.9993H5.875V21.9993H3.875C3.324 21.9993 2.875 21.5513 2.875 20.9993ZM9.875 21.9993H7.875V18.9993H10.875V20.9993C10.875 21.5513 10.426 21.9993 9.875 21.9993ZM22.804 21.0083C22.7 21.2553 22.507 21.4463 22.26 21.5473L21.334 21.9253C20.823 22.1313 20.239 21.8883 20.034 21.3853L19.365 19.7143L22.143 18.5823L22.808 20.2433C22.91 20.4903 22.909 20.7633 22.805 21.0093L22.804 21.0083Z" fill="#676D75"/>
</g>
<defs>
<clipPath id="clip0_3099_2616">
<rect width="24" height="24" fill="white" transform="translate(0.875)"/>
</clipPath>
</defs>
</svg>
