<svg width="24" height="24" viewBox="0 0 24 24" fill="none" xmlns="http://www.w3.org/2000/svg">
<g clip-path="url(#clip0_3396_1892)">
<path d="M12.8832 15.2162L4.94824 23.1512C4.68149 23.4313 4.36141 23.6552 4.00684 23.8097C3.65226 23.9642 3.27036 24.0463 2.8836 24.051C2.49684 24.0557 2.11305 23.983 1.75481 23.8372C1.39658 23.6913 1.07113 23.4753 0.797633 23.2018C0.524135 22.9283 0.308111 22.6029 0.162276 22.2446C0.0164409 21.8864 -0.0562581 21.5026 -0.0515422 21.1158C-0.0468264 20.7291 0.035209 20.3472 0.189735 19.9926C0.344262 19.638 0.568157 19.3179 0.848242 19.0512L8.78324 11.1162L12.8832 15.2162ZM17.1002 6.9002C16.5482 6.37255 15.8139 6.07809 15.0502 6.07809C14.2866 6.07809 13.5523 6.37255 13.0002 6.9002L10.2002 9.7002L14.3002 13.8002L17.1002 11.0002C17.6437 10.4564 17.949 9.71902 17.949 8.9502C17.949 8.18137 17.6437 7.444 17.1002 6.9002ZM4.86324 5.1452L6.41324 5.58719L6.85524 7.1372C6.92645 7.38591 7.0767 7.60468 7.28328 7.76042C7.48986 7.91615 7.74154 8.00039 8.00024 8.00039C8.25895 8.00039 8.51062 7.91615 8.7172 7.76042C8.92378 7.60468 9.07404 7.38591 9.14524 7.1372L9.58724 5.58719L11.1372 5.1452C11.386 5.07399 11.6047 4.92374 11.7605 4.71716C11.9162 4.51058 12.0004 4.2589 12.0004 4.0002C12.0004 3.74149 11.9162 3.48982 11.7605 3.28323C11.6047 3.07665 11.386 2.9264 11.1372 2.8552L9.58724 2.4132L9.14524 0.863195C9.07404 0.61448 8.92378 0.395712 8.7172 0.239975C8.51062 0.0842378 8.25895 0 8.00024 0C7.74154 0 7.48986 0.0842378 7.28328 0.239975C7.0767 0.395712 6.92645 0.61448 6.85524 0.863195L6.41324 2.4132L4.86324 2.8552C4.61453 2.9264 4.39576 3.07665 4.24002 3.28323C4.08429 3.48982 4.00005 3.74149 4.00005 4.0002C4.00005 4.2589 4.08429 4.51058 4.24002 4.71716C4.39576 4.92374 4.61453 5.07399 4.86324 5.1452ZM16.8632 17.1452L18.4132 17.5872L18.8552 19.1372C18.9264 19.3859 19.0767 19.6047 19.2833 19.7604C19.4899 19.9162 19.7415 20.0004 20.0002 20.0004C20.259 20.0004 20.5106 19.9162 20.7172 19.7604C20.9238 19.6047 21.074 19.3859 21.1452 19.1372L21.5872 17.5872L23.1372 17.1452C23.386 17.074 23.6047 16.9237 23.7605 16.7172C23.9162 16.5106 24.0004 16.2589 24.0004 16.0002C24.0004 15.7415 23.9162 15.4898 23.7605 15.2832C23.6047 15.0767 23.386 14.9264 23.1372 14.8552L21.5872 14.4132L21.1452 12.8632C21.074 12.6145 20.9238 12.3957 20.7172 12.24C20.5106 12.0842 20.259 12 20.0002 12C19.7415 12 19.4899 12.0842 19.2833 12.24C19.0767 12.3957 18.9264 12.6145 18.8552 12.8632L18.4132 14.4132L16.8632 14.8552C16.6145 14.9264 16.3958 15.0767 16.24 15.2832C16.0843 15.4898 16 15.7415 16 16.0002C16 16.2589 16.0843 16.5106 16.24 16.7172C16.3958 16.9237 16.6145 17.074 16.8632 17.1452ZM17.7562 4.5002L19.1112 4.8872L19.5002 6.24419C19.5636 6.46038 19.6952 6.65022 19.8755 6.78528C20.0558 6.92034 20.275 6.99334 20.5002 6.99334C20.7255 6.99334 20.9447 6.92034 21.125 6.78528C21.3053 6.65022 21.4369 6.46038 21.5002 6.24419L21.8872 4.88919L23.2442 4.5002C23.4604 4.43688 23.6503 4.30522 23.7853 4.12494C23.9204 3.94465 23.9934 3.72546 23.9934 3.5002C23.9934 3.27493 23.9204 3.05574 23.7853 2.87545C23.6503 2.69517 23.4604 2.56351 23.2442 2.5002L21.8892 2.1132L21.5002 0.756195C21.4369 0.540012 21.3053 0.350167 21.125 0.215108C20.9447 0.0800491 20.7255 0.00705009 20.5002 0.00705009C20.275 0.00705009 20.0558 0.0800491 19.8755 0.215108C19.6952 0.350167 19.5636 0.540012 19.5002 0.756195L19.1132 2.1112L17.7562 2.5002C17.5401 2.56351 17.3502 2.69517 17.2152 2.87545C17.0801 3.05574 17.0071 3.27493 17.0071 3.5002C17.0071 3.72546 17.0801 3.94465 17.2152 4.12494C17.3502 4.30522 17.5401 4.43688 17.7562 4.5002Z" fill="#6C63FF"/>
</g>
<defs>
<clipPath id="clip0_3396_1892">
<rect width="24" height="24" fill="white"/>
</clipPath>
</defs>
</svg>
