<svg width="24" height="24" viewBox="0 0 24 24" fill="none" xmlns="http://www.w3.org/2000/svg">
<g clip-path="url(#clip0_3396_1894)">
<path d="M18.0004 9.0642C18.0005 8.66196 17.9211 8.26366 17.7666 7.89227C17.6121 7.52087 17.3857 7.1837 17.1004 6.9002C16.5165 6.34304 15.7404 6.03219 14.9334 6.03219C14.1263 6.03219 13.3503 6.34304 12.7664 6.9002L0.900375 18.7692C0.358794 19.3499 0.0638166 20.1182 0.0776114 20.9122C0.0914062 21.7061 0.412896 22.4637 0.974324 23.0253C1.53575 23.5868 2.29327 23.9085 3.08721 23.9225C3.88116 23.9364 4.64953 23.6416 5.23037 23.1002L17.1004 11.2312C17.3862 10.9474 17.6129 10.6098 17.7673 10.2378C17.9218 9.86585 18.001 9.46696 18.0004 9.0642ZM3.81638 21.6882C3.61422 21.8809 3.34566 21.9884 3.06638 21.9884C2.78709 21.9884 2.51853 21.8809 2.31638 21.6882C2.11779 21.4891 2.00627 21.2194 2.00627 20.9382C2.00627 20.657 2.11779 20.3873 2.31638 20.1882L10.0854 12.4182L11.5904 13.9232L3.81638 21.6882ZM15.6884 9.8162L13.0004 12.5052L11.5004 11.0002L14.1894 8.3122C14.2852 8.20269 14.4026 8.11404 14.5341 8.05172C14.6656 7.98941 14.8085 7.95476 14.954 7.94994C15.0994 7.94511 15.2443 7.9702 15.3797 8.02365C15.515 8.07711 15.638 8.15779 15.7409 8.2607C15.8438 8.3636 15.9245 8.48655 15.9779 8.62191C16.0314 8.75727 16.0565 8.90216 16.0516 9.04762C16.0468 9.19307 16.0122 9.33598 15.9498 9.4675C15.8875 9.59902 15.7989 9.71634 15.6894 9.8122L15.6884 9.8162ZM4.86337 2.8552L6.41337 2.4132L6.85537 0.863195C6.92658 0.61448 7.07683 0.395712 7.28341 0.239975C7.48999 0.0842378 7.74167 0 8.00037 0C8.25908 0 8.51076 0.0842378 8.71734 0.239975C8.92392 0.395712 9.07417 0.61448 9.14538 0.863195L9.58737 2.4132L11.1374 2.8552C11.3861 2.9264 11.6049 3.07665 11.7606 3.28323C11.9163 3.48982 12.0006 3.74149 12.0006 4.0002C12.0006 4.2589 11.9163 4.51058 11.7606 4.71716C11.6049 4.92374 11.3861 5.07399 11.1374 5.1452L9.58737 5.58719L9.14538 7.1372C9.07417 7.38591 8.92392 7.60468 8.71734 7.76042C8.51076 7.91615 8.25908 8.00039 8.00037 8.00039C7.74167 8.00039 7.48999 7.91615 7.28341 7.76042C7.07683 7.60468 6.92658 7.38591 6.85537 7.1372L6.41337 5.58719L4.86337 5.1452C4.61466 5.07399 4.39589 4.92374 4.24015 4.71716C4.08442 4.51058 4.00018 4.2589 4.00018 4.0002C4.00018 3.74149 4.08442 3.48982 4.24015 3.28323C4.39589 3.07665 4.61466 2.9264 4.86337 2.8552ZM23.1374 17.1452L21.5874 17.5872L21.1454 19.1372C21.0742 19.3859 20.9239 19.6047 20.7173 19.7604C20.5108 19.9162 20.2591 20.0004 20.0004 20.0004C19.7417 20.0004 19.49 19.9162 19.2834 19.7604C19.0768 19.6047 18.9266 19.3859 18.8554 19.1372L18.4134 17.5872L16.8634 17.1452C16.6147 17.074 16.3959 16.9237 16.2402 16.7172C16.0844 16.5106 16.0002 16.2589 16.0002 16.0002C16.0002 15.7415 16.0844 15.4898 16.2402 15.2832C16.3959 15.0767 16.6147 14.9264 16.8634 14.8552L18.4134 14.4132L18.8554 12.8632C18.9266 12.6145 19.0768 12.3957 19.2834 12.24C19.49 12.0842 19.7417 12 20.0004 12C20.2591 12 20.5108 12.0842 20.7173 12.24C20.9239 12.3957 21.0742 12.6145 21.1454 12.8632L21.5874 14.4132L23.1374 14.8552C23.3861 14.9264 23.6049 15.0767 23.7606 15.2832C23.9163 15.4898 24.0006 15.7415 24.0006 16.0002C24.0006 16.2589 23.9163 16.5106 23.7606 16.7172C23.6049 16.9237 23.3861 17.074 23.1374 17.1452ZM17.7554 2.5002L19.1114 2.1132L19.5004 0.755195C19.5637 0.539012 19.6953 0.349167 19.8756 0.214108C20.0559 0.0790491 20.2751 0.00605009 20.5004 0.00605009C20.7256 0.00605009 20.9448 0.0790491 21.1251 0.214108C21.3054 0.349167 21.4371 0.539012 21.5004 0.755195L21.8874 2.1112L23.2434 2.4982C23.4596 2.56151 23.6494 2.69317 23.7845 2.87345C23.9195 3.05374 23.9925 3.27293 23.9925 3.4982C23.9925 3.72346 23.9195 3.94265 23.7845 4.12294C23.6494 4.30322 23.4596 4.43488 23.2434 4.4982L21.8874 4.8852L21.5004 6.24419C21.4371 6.46038 21.3054 6.65022 21.1251 6.78528C20.9448 6.92034 20.7256 6.99334 20.5004 6.99334C20.2751 6.99334 20.0559 6.92034 19.8756 6.78528C19.6953 6.65022 19.5637 6.46038 19.5004 6.24419L19.1134 4.88919L17.7554 4.5002C17.5392 4.43688 17.3493 4.30522 17.2143 4.12494C17.0792 3.94465 17.0062 3.72546 17.0062 3.5002C17.0062 3.27493 17.0792 3.05574 17.2143 2.87545C17.3493 2.69517 17.5392 2.56351 17.7554 2.5002Z" fill="#676D75"/>
</g>
<defs>
<clipPath id="clip0_3396_1894">
<rect width="24" height="24" fill="white"/>
</clipPath>
</defs>
</svg>
