<svg width="30" height="30" viewBox="0 0 30 30" fill="none" xmlns="http://www.w3.org/2000/svg">
<g clip-path="url(#clip0_3329_2147)">
<path d="M28.125 13.125H16.875V1.875C16.875 0.839473 16.0355 0 15 0C13.9645 0 13.125 0.839473 13.125 1.875V13.125H1.875C0.839473 13.125 0 13.9645 0 15C0 16.0355 0.839473 16.875 1.875 16.875H13.125V28.125C13.125 29.1605 13.9645 30 15 30C16.0355 30 16.875 29.1605 16.875 28.125V16.875H28.125C29.1605 16.875 30 16.0355 30 15C30 13.9645 29.1605 13.125 28.125 13.125Z" fill="white"/>
</g>
<defs>
<clipPath id="clip0_3329_2147">
<rect width="30" height="30" fill="white"/>
</clipPath>
</defs>
</svg>
