<svg width="20" height="20" viewBox="0 0 20 20" fill="none" xmlns="http://www.w3.org/2000/svg">
<path d="M6.6651 11.6642C9.42602 11.6642 11.6642 9.42602 11.6642 6.6651C11.6642 3.90418 9.42602 1.66602 6.6651 1.66602C3.90418 1.66602 1.66602 3.90418 1.66602 6.6651C1.66602 9.42602 3.90418 11.6642 6.6651 11.6642Z" stroke="#00C950" stroke-width="1.66636" stroke-linecap="round" stroke-linejoin="round"/>
<path d="M15.0724 8.64062C15.86 8.93426 16.5609 9.42176 17.1101 10.058C17.6594 10.6943 18.0394 11.4588 18.2149 12.2808C18.3905 13.1029 18.3559 13.9559 18.1144 14.761C17.8729 15.5662 17.4322 16.2974 16.8333 16.8871C16.2343 17.4768 15.4962 17.906 14.6874 18.1349C13.8786 18.3638 13.0252 18.3851 12.206 18.1968C11.3868 18.0084 10.6283 17.6166 10.0007 17.0574C9.37305 16.4983 8.89655 15.7899 8.61523 14.9978" stroke="#00C950" stroke-width="1.66636" stroke-linecap="round" stroke-linejoin="round"/>
<path d="M5.83203 5H6.66521V8.33272" stroke="#00C950" stroke-width="1.66636" stroke-linecap="round" stroke-linejoin="round"/>
<path d="M13.9226 11.5645L14.5058 12.156L12.1562 14.5056" stroke="#00C950" stroke-width="1.66636" stroke-linecap="round" stroke-linejoin="round"/>
</svg>
