<svg width="20" height="20" viewBox="0 0 20 20" fill="none" xmlns="http://www.w3.org/2000/svg">
<g clip-path="url(#clip0_3651_2270)">
<path d="M9.60161 1.91172C9.63812 1.83795 9.69452 1.77585 9.76445 1.73244C9.83439 1.68902 9.91506 1.66602 9.99737 1.66602C10.0797 1.66602 10.1604 1.68902 10.2303 1.73244C10.3002 1.77585 10.3566 1.83795 10.3931 1.91172L12.3178 5.81017C12.4446 6.06676 12.6317 6.28875 12.8632 6.45709C13.0947 6.62543 13.3635 6.73509 13.6467 6.77666L17.9509 7.40654C18.0325 7.41836 18.1091 7.45276 18.1721 7.50586C18.2351 7.55895 18.282 7.62862 18.3075 7.70699C18.333 7.78536 18.3361 7.8693 18.3163 7.94931C18.2966 8.02932 18.2549 8.10221 18.1959 8.15974L15.0831 11.1908C14.8778 11.3909 14.7242 11.6378 14.6355 11.9104C14.5469 12.183 14.5258 12.473 14.574 12.7556L15.3089 17.0381C15.3233 17.1196 15.3145 17.2035 15.2835 17.2803C15.2525 17.3571 15.2005 17.4235 15.1335 17.4722C15.0666 17.5208 14.9873 17.5497 14.9047 17.5554C14.8221 17.5612 14.7396 17.5436 14.6665 17.5047L10.8189 15.4817C10.5654 15.3486 10.2833 15.2791 9.99695 15.2791C9.7106 15.2791 9.42854 15.3486 9.17502 15.4817L5.32822 17.5047C5.25518 17.5434 5.17275 17.5608 5.09031 17.5549C5.00787 17.549 4.92873 17.5202 4.86189 17.4715C4.79505 17.4229 4.74319 17.3565 4.71222 17.2799C4.68124 17.2033 4.67239 17.1195 4.68667 17.0381L5.42071 12.7564C5.4692 12.4737 5.44819 12.1835 5.3595 11.9108C5.27081 11.638 5.1171 11.3909 4.91163 11.1908L1.79887 8.16057C1.73938 8.10311 1.69722 8.03009 1.6772 7.94984C1.65717 7.86958 1.66009 7.78532 1.68562 7.70665C1.71115 7.62797 1.75827 7.55805 1.8216 7.50484C1.88493 7.45164 1.96193 7.41729 2.04383 7.40571L6.3472 6.77666C6.6307 6.73541 6.89993 6.6259 7.13171 6.45754C7.3635 6.28918 7.5509 6.06701 7.67779 5.81017L9.60161 1.91172Z" stroke="#F0B100" stroke-width="1.66636" stroke-linecap="round" stroke-linejoin="round"/>
</g>
<defs>
<clipPath id="clip0_3651_2270">
<rect width="19.9963" height="19.9963" fill="white"/>
</clipPath>
</defs>
</svg>
