<svg width="20" height="20" viewBox="0 0 20 20" fill="none" xmlns="http://www.w3.org/2000/svg">
<g clip-path="url(#clip0_3651_2281)">
<path d="M12.895 10.7402L14.1573 17.8439C14.1714 17.9276 14.1597 18.0136 14.1237 18.0903C14.0876 18.1671 14.029 18.2311 13.9556 18.2737C13.8822 18.3163 13.7976 18.3354 13.713 18.3286C13.6285 18.3218 13.548 18.2893 13.4824 18.2355L10.4996 15.9968C10.3556 15.8892 10.1807 15.8311 10.001 15.8311C9.82123 15.8311 9.64631 15.8892 9.50231 15.9968L6.51452 18.2347C6.44897 18.2884 6.3686 18.3208 6.28415 18.3276C6.19969 18.3345 6.11516 18.3154 6.04183 18.2729C5.9685 18.2305 5.90987 18.1666 5.87374 18.09C5.83762 18.0134 5.82572 17.9275 5.83965 17.8439L7.10108 10.7402" stroke="#AD46FF" stroke-width="1.66636" stroke-linecap="round" stroke-linejoin="round"/>
<path d="M9.99908 11.6642C12.76 11.6642 14.9982 9.42602 14.9982 6.6651C14.9982 3.90418 12.76 1.66602 9.99908 1.66602C7.23817 1.66602 5 3.90418 5 6.6651C5 9.42602 7.23817 11.6642 9.99908 11.6642Z" stroke="#AD46FF" stroke-width="1.66636" stroke-linecap="round" stroke-linejoin="round"/>
</g>
<defs>
<clipPath id="clip0_3651_2281">
<rect width="19.9963" height="19.9963" fill="white"/>
</clipPath>
</defs>
</svg>
