<svg width="337" height="337" viewBox="0 0 337 337" fill="none" xmlns="http://www.w3.org/2000/svg">
<path d="M277.311 73.3791C265.853 61.5032 252.723 51.6359 238.771 44.7206C217.52 34.186 194.112 29.1108 170.697 28.8075C102.286 27.9313 97.056 113.098 76.0475 124.94C55.0389 136.782 16.8837 138.171 15.5694 185.539C14.7404 215.337 21.3052 245.97 39.7593 269.183C56.6632 290.441 81.5001 301.218 105.96 309.178C133.452 318.129 162.576 326.891 191.47 320.858C221.126 314.664 241.966 289.78 266.318 272.964C281.651 262.375 295.414 251.227 304.884 234.236C306.016 232.214 307.074 230.138 308.085 228.035C320.763 201.635 323.244 171.183 316.254 142.612C309.986 116.98 295.825 92.5611 277.311 73.3791Z" fill="#6C63FF"/>
<path opacity="0.7" d="M277.311 73.3791C265.853 61.5032 252.723 51.6359 238.771 44.7206C217.52 34.186 194.112 29.1108 170.697 28.8075C102.286 27.9313 97.056 113.098 76.0475 124.94C55.0389 136.782 16.8837 138.171 15.5694 185.539C14.7404 215.337 21.3052 245.97 39.7593 269.183C56.6632 290.441 81.5001 301.218 105.96 309.178C133.452 318.129 162.576 326.891 191.47 320.858C221.126 314.664 241.966 289.78 266.318 272.964C281.651 262.375 295.414 251.227 304.884 234.236C306.016 232.214 307.074 230.138 308.085 228.035C320.763 201.635 323.244 171.183 316.254 142.612C309.986 116.98 295.825 92.5611 277.311 73.3791Z" fill="white"/>
<path d="M194.355 214.016C195.548 214.845 198.763 215.411 198.769 215.411C198.776 215.411 198.5 213.18 198.459 213.039C198.055 211.435 196.316 208.563 194.456 208.449C194.147 208.437 193.839 208.491 193.552 208.607C193.266 208.723 193.007 208.898 192.793 209.121C192.578 209.343 192.413 209.608 192.308 209.899C192.204 210.19 192.161 210.5 192.184 210.808C192.238 212.115 193.337 213.302 194.355 214.016Z" fill="#5A189A"/>
<path d="M193.606 223.507C194.954 223.979 197.947 223.723 198.19 223.696C198.335 225.425 198.594 227.143 198.965 228.838C199.18 229.829 199.423 230.813 199.679 231.804C199.497 231.372 199.329 230.982 199.295 230.934C198.479 229.485 196.046 227.18 194.22 227.564C193.919 227.635 193.636 227.769 193.391 227.957C193.145 228.145 192.942 228.382 192.794 228.654C192.647 228.925 192.558 229.225 192.534 229.533C192.511 229.842 192.552 230.151 192.656 230.442C193.047 231.689 194.422 232.545 195.588 232.963C196.754 233.381 199.356 233.212 200.043 233.159C200.144 233.543 200.239 233.92 200.346 234.298C200.845 236.111 201.351 237.917 201.789 239.69C201.951 240.316 202.079 240.943 202.213 241.57C202.045 241.186 201.903 240.862 201.876 240.815C201.061 239.373 198.628 237.061 196.801 237.445C196.501 237.517 196.219 237.652 195.974 237.84C195.729 238.027 195.526 238.265 195.379 238.536C195.231 238.808 195.143 239.107 195.118 239.415C195.094 239.723 195.135 240.032 195.238 240.323C195.628 241.577 197.003 242.426 198.176 242.844C199.349 243.262 201.688 243.114 202.503 243.053C202.618 243.727 202.732 244.34 202.82 244.974C202.867 245.405 202.941 245.816 202.968 246.254C202.995 246.692 203.029 247.11 203.063 247.535C203.096 248.351 203.13 249.193 203.144 249.988C203.144 250.548 203.144 251.073 203.144 251.606C202.995 250.979 202.678 249.752 202.645 249.651C202.052 248.101 199.996 245.452 198.136 245.547C197.828 245.571 197.528 245.661 197.257 245.809C196.986 245.958 196.749 246.162 196.562 246.408C196.375 246.654 196.242 246.937 196.171 247.238C196.101 247.539 196.095 247.852 196.154 248.155C196.35 249.449 197.583 250.507 198.675 251.094C199.875 251.768 202.786 251.95 203.144 251.97C203.144 252.853 203.144 253.709 203.144 254.518C203.11 256.162 203.042 257.638 202.962 258.912L204.155 259.148C204.208 257.8 204.249 256.27 204.249 254.531C204.249 253.635 204.249 252.678 204.249 251.7C205.159 251.526 206.059 251.301 206.945 251.026C207.68 252.219 209.836 253.884 210.113 254.093C209.627 254.828 209.149 255.542 208.691 256.203C207.808 257.47 206.992 258.589 206.257 259.573L207.538 259.829C208.172 258.939 208.886 257.935 209.6 256.829C210.092 256.081 210.611 255.279 211.13 254.444C211.461 254.585 214.157 255.717 215.518 255.684C216.758 255.684 218.335 255.266 219.097 254.201C219.285 253.956 219.42 253.674 219.493 253.374C219.565 253.074 219.574 252.762 219.518 252.458C219.462 252.154 219.343 251.866 219.168 251.611C218.993 251.356 218.767 251.141 218.504 250.979C216.886 250.049 213.86 251.491 212.627 252.61C212.559 252.671 211.852 253.473 211.414 253.992L212.047 252.967C212.472 252.293 212.876 251.559 213.314 250.797L213.914 249.665C214.123 249.287 214.298 248.87 214.494 248.465C214.925 247.528 215.316 246.551 215.693 245.56C216.3 245.931 218.491 247.225 219.737 247.38C220.984 247.535 222.575 247.38 223.492 246.457C223.716 246.243 223.893 245.985 224.01 245.699C224.128 245.413 224.184 245.105 224.174 244.796C224.165 244.487 224.09 244.183 223.955 243.905C223.82 243.627 223.627 243.38 223.39 243.181C221.941 242.022 218.726 242.985 217.324 243.902C217.237 243.956 216.313 244.731 215.821 245.163C216.037 244.563 216.26 243.97 216.462 243.363C217.048 241.597 217.587 239.791 218.133 237.971C218.295 237.418 218.47 236.872 218.639 236.326C218.854 236.461 221.429 238.045 222.811 238.22C224.044 238.382 225.655 238.22 226.572 237.297C226.795 237.084 226.971 236.826 227.088 236.541C227.205 236.255 227.26 235.948 227.251 235.64C227.241 235.332 227.167 235.029 227.032 234.751C226.898 234.473 226.707 234.227 226.471 234.028C225.015 232.862 221.8 233.826 220.405 234.742C220.304 234.817 218.983 235.922 218.659 236.225C219.036 235.019 219.421 233.819 219.845 232.653C220.422 231.076 221.097 229.536 221.867 228.043C221.968 228.11 224.644 229.775 226.06 229.957C227.293 230.119 228.904 229.957 229.82 229.034C230.044 228.82 230.22 228.562 230.337 228.276C230.454 227.99 230.509 227.682 230.5 227.373C230.49 227.064 230.416 226.761 230.281 226.483C230.147 226.204 229.955 225.958 229.719 225.758C228.264 224.599 225.049 225.563 223.653 226.479C223.546 226.553 222.123 227.746 221.881 227.982C221.928 227.901 221.968 227.807 222.016 227.719C222.827 226.244 223.77 224.846 224.833 223.541C225.406 222.813 225.999 222.145 226.592 221.519C227.057 221.883 229.207 223.541 230.461 223.817C231.714 224.093 233.285 224.14 234.303 223.311C234.548 223.124 234.751 222.887 234.898 222.616C235.046 222.345 235.135 222.045 235.159 221.738C235.183 221.43 235.142 221.12 235.039 220.829C234.935 220.539 234.772 220.273 234.559 220.049C233.244 218.735 229.942 219.335 228.493 220.096C228.412 220.137 227.643 220.649 227.091 221.033C227.36 220.75 227.637 220.454 227.9 220.191C228.89 219.193 229.861 218.337 230.724 217.589C231.222 217.171 231.681 216.801 232.112 216.457C232.752 216.571 235.347 217.01 236.581 216.706C237.814 216.403 239.236 215.695 239.755 214.489C239.887 214.209 239.958 213.905 239.964 213.596C239.97 213.287 239.911 212.98 239.791 212.695C239.671 212.411 239.492 212.154 239.267 211.943C239.041 211.732 238.773 211.57 238.481 211.469C236.709 210.917 234.053 212.966 233.089 214.327C233.008 214.442 231.923 216.423 231.957 216.43H231.991C231.573 216.753 231.121 217.104 230.643 217.495C229.76 218.223 228.769 219.052 227.751 220.036C226.642 221.078 225.595 222.186 224.617 223.352C223.512 224.649 222.526 226.043 221.672 227.517C221.673 227.535 221.673 227.553 221.672 227.571C221.786 227.039 222.063 225.549 222.069 225.421C222.184 223.763 221.429 220.494 219.697 219.807C219.407 219.7 219.098 219.656 218.789 219.677C218.481 219.698 218.181 219.784 217.908 219.929C217.635 220.074 217.396 220.275 217.206 220.518C217.016 220.762 216.879 221.043 216.806 221.343C216.442 222.604 217.116 224.073 217.864 225.064C218.706 226.183 221.368 227.639 221.577 227.76C220.743 229.281 220.013 230.857 219.394 232.478C219.023 233.421 218.679 234.379 218.349 235.349C218.437 234.884 218.511 234.466 218.511 234.405C218.625 232.754 217.87 229.485 216.138 228.791C215.848 228.684 215.539 228.64 215.231 228.661C214.922 228.682 214.622 228.768 214.349 228.913C214.076 229.058 213.837 229.259 213.647 229.503C213.457 229.747 213.321 230.028 213.247 230.328C212.883 231.588 213.557 233.057 214.305 234.048C215.053 235.039 217.311 236.34 217.904 236.67C217.783 237.041 217.655 237.412 217.533 237.789C216.954 239.575 216.374 241.361 215.761 243.093C215.538 243.707 215.302 244.3 215.087 244.893C215.161 244.482 215.222 244.131 215.222 244.077C215.336 242.426 214.581 239.157 212.856 238.463C212.565 238.357 212.256 238.314 211.947 238.335C211.639 238.357 211.339 238.443 211.066 238.588C210.792 238.733 210.553 238.933 210.362 239.176C210.171 239.419 210.033 239.7 209.958 240C209.6 241.26 210.274 242.729 211.016 243.72C211.757 244.711 213.799 245.884 214.514 246.281C214.251 246.888 213.995 247.488 213.719 248.061C213.516 248.445 213.355 248.836 213.132 249.213L212.505 250.332C212.081 251.006 211.649 251.754 211.218 252.428L210.342 253.776C210.564 253.17 210.975 251.97 211.016 251.869C211.277 250.432 211.168 248.952 210.699 247.569C210.738 247.41 210.761 247.247 210.766 247.083C210.788 246.775 210.745 246.466 210.64 246.176C210.535 245.886 210.37 245.621 210.156 245.398C209.942 245.176 209.683 245.001 209.397 244.885C209.111 244.769 208.804 244.714 208.495 244.724C206.635 244.846 204.903 247.717 204.492 249.328C204.492 249.422 204.323 250.48 204.242 251.148C204.242 250.75 204.242 250.359 204.208 249.948C204.175 249.132 204.121 248.317 204.067 247.441L203.946 246.16C203.912 245.735 203.824 245.284 203.764 244.846C203.609 243.821 203.393 242.79 203.164 241.759C203.878 241.759 206.412 241.597 207.531 241.085C208.65 240.573 209.91 239.528 210.16 238.241C210.233 237.938 210.24 237.623 210.181 237.316C210.123 237.01 210 236.72 209.821 236.465C209.642 236.21 209.411 235.996 209.143 235.838C208.874 235.679 208.576 235.579 208.266 235.545C206.412 235.376 204.262 237.951 203.615 239.481C203.575 239.575 203.238 240.728 203.063 241.361C202.914 240.741 202.773 240.121 202.604 239.501C202.119 237.708 201.573 235.908 201.034 234.109L200.549 232.458C200.805 232.458 203.824 232.357 205.078 231.736C206.19 231.191 207.457 230.186 207.707 228.892C207.778 228.589 207.785 228.275 207.726 227.969C207.667 227.663 207.544 227.374 207.365 227.119C207.186 226.864 206.955 226.65 206.688 226.491C206.42 226.332 206.122 226.232 205.813 226.196C203.959 226.034 201.809 228.609 201.162 230.139C201.115 230.254 200.623 231.912 200.522 232.336C200.171 231.123 199.848 229.91 199.544 228.703C199.15 227.073 198.862 225.418 198.682 223.75C198.803 223.75 201.951 223.662 203.238 223.028C204.35 222.482 205.61 221.471 205.86 220.184C205.931 219.882 205.938 219.568 205.88 219.262C205.821 218.957 205.699 218.668 205.52 218.413C205.342 218.158 205.112 217.944 204.845 217.785C204.579 217.626 204.281 217.524 203.973 217.488C202.119 217.326 199.969 219.901 199.322 221.431C199.268 221.552 198.742 223.332 198.648 223.662C198.648 223.561 198.614 223.466 198.608 223.365C198.471 221.689 198.487 220.004 198.655 218.331C198.729 217.4 198.857 216.524 198.998 215.668C199.592 215.709 202.281 215.884 203.501 215.446C204.721 215.008 206.035 214.159 206.419 212.905C206.521 212.613 206.56 212.303 206.534 211.996C206.507 211.688 206.417 211.389 206.267 211.119C206.118 210.849 205.913 210.613 205.666 210.427C205.419 210.241 205.136 210.109 204.835 210.04C203.015 209.67 200.596 211.995 199.78 213.444C199.74 213.525 199.376 214.374 199.106 214.994C199.174 214.61 199.241 214.212 199.315 213.848C199.592 212.5 199.935 211.22 200.239 210.121C200.421 209.494 200.596 208.935 200.771 208.416C201.371 208.153 203.777 207.068 204.64 206.151C205.503 205.235 206.298 203.846 206.062 202.552C206.016 202.25 205.908 201.961 205.745 201.703C205.581 201.445 205.366 201.223 205.113 201.053C204.859 200.882 204.573 200.766 204.272 200.712C203.972 200.658 203.663 200.668 203.366 200.739C201.58 201.251 200.501 204.433 200.448 206.091C200.448 206.232 200.63 208.483 200.663 208.47H200.697C200.528 208.969 200.346 209.508 200.158 210.101C199.827 211.2 199.484 212.44 199.147 213.815C198.801 215.297 198.54 216.798 198.365 218.31C198.163 220.003 198.111 221.711 198.21 223.413C198.21 223.413 198.21 223.453 198.21 223.473C198.014 222.968 197.415 221.559 197.354 221.451C196.532 220.009 194.098 217.697 192.279 218.081C191.978 218.153 191.697 218.288 191.452 218.476C191.206 218.663 191.004 218.901 190.856 219.172C190.709 219.443 190.62 219.743 190.596 220.051C190.571 220.359 190.612 220.668 190.715 220.959C191.065 222.24 192.44 223.096 193.606 223.507Z" fill="#5A189A"/>
<path d="M226.599 221.18C226.599 221.18 227.603 219.158 227.65 219.03C228.196 217.46 228.324 214.11 226.848 212.964C226.597 212.785 226.311 212.66 226.008 212.599C225.705 212.537 225.393 212.54 225.091 212.608C224.79 212.675 224.506 212.805 224.258 212.99C224.01 213.174 223.804 213.409 223.653 213.679C222.979 214.797 223.229 216.375 223.687 217.547C224.226 218.929 226.599 221.174 226.599 221.18Z" fill="#5A189A"/>
<path d="M125.195 87.2969C126.469 87.4789 129.239 86.6229 129.239 86.6229C129.239 86.6229 128.141 84.9649 128.06 84.8705C127.096 83.7652 124.589 82.1745 123.079 82.8485C122.831 82.9631 122.611 83.1283 122.431 83.3335C122.252 83.5387 122.117 83.7794 122.036 84.0399C121.956 84.3004 121.931 84.5749 121.963 84.8457C121.995 85.1165 122.084 85.3775 122.223 85.6119C122.776 86.6364 124.117 87.1352 125.195 87.2969Z" fill="#5A189A"/>
<path d="M128.377 95.0753C129.597 94.9203 131.881 93.5183 132.063 93.4105C132.86 94.7165 133.745 95.9663 134.712 97.1512C135.272 97.8252 135.851 98.5329 136.444 99.2069C136.128 98.9373 135.845 98.7014 135.77 98.6744C134.557 97.8589 131.726 97.0029 130.432 98.0004C130.224 98.1764 130.055 98.3941 129.936 98.6395C129.817 98.885 129.751 99.1526 129.742 99.4252C129.733 99.6978 129.782 99.9691 129.884 100.222C129.987 100.474 130.142 100.703 130.338 100.892C131.147 101.721 132.569 101.849 133.654 101.714C134.739 101.579 136.727 100.42 137.24 100.11C137.469 100.366 137.698 100.629 137.914 100.885C139.026 102.112 140.138 103.339 141.196 104.572C141.567 105.01 141.917 105.448 142.268 105.92C141.985 105.677 141.749 105.482 141.708 105.455C140.488 104.639 137.664 103.783 136.37 104.781C136.161 104.956 135.991 105.174 135.872 105.419C135.752 105.665 135.686 105.933 135.677 106.206C135.668 106.478 135.717 106.75 135.82 107.003C135.923 107.256 136.079 107.484 136.276 107.672C137.078 108.501 138.5 108.629 139.592 108.495C140.684 108.36 142.47 107.315 143.083 106.944C143.427 107.409 143.757 107.868 144.094 108.333C144.303 108.656 144.526 108.953 144.721 109.283L145.301 110.254C145.651 110.887 146.015 111.534 146.339 112.161C146.568 112.593 146.777 113.01 147.013 113.428C146.642 112.99 145.914 112.154 145.84 112.08C144.762 111.09 142.093 109.816 140.664 110.631C140.431 110.773 140.231 110.962 140.076 111.186C139.921 111.41 139.815 111.664 139.765 111.931C139.715 112.199 139.722 112.474 139.785 112.739C139.848 113.004 139.966 113.252 140.131 113.469C140.805 114.412 142.187 114.756 143.286 114.817C144.485 114.817 146.864 113.86 147.161 113.738C147.505 114.412 147.835 115.086 148.145 115.76C148.772 117.068 149.298 118.261 149.742 119.299L150.774 119.009C150.288 117.944 149.709 116.704 149.021 115.336C148.671 114.662 148.28 113.88 147.869 113.118C148.525 112.615 149.153 112.075 149.749 111.501C150.929 112.06 152.181 112.452 153.47 112.667C153.375 113.442 153.281 114.19 153.18 114.898C152.984 116.246 152.782 117.452 152.593 118.51L153.706 118.2C153.854 117.25 154.002 116.178 154.144 115.026C154.238 114.237 154.326 113.401 154.407 112.539C154.717 112.539 157.291 112.343 158.356 111.77C159.32 111.251 160.378 110.328 160.587 109.182C160.639 108.915 160.634 108.639 160.573 108.374C160.511 108.108 160.394 107.859 160.229 107.642C160.064 107.425 159.855 107.245 159.616 107.115C159.377 106.984 159.113 106.905 158.841 106.884C157.204 106.789 155.384 109.128 154.858 110.49C154.824 110.571 154.588 111.487 154.447 112.067C154.447 111.71 154.514 111.393 154.541 111.009C154.595 110.287 154.636 109.573 154.683 108.798V107.666C154.683 107.288 154.683 106.884 154.683 106.493C154.683 105.576 154.575 104.653 154.481 103.723C155.107 103.777 157.345 103.925 158.383 103.561C159.421 103.197 160.628 102.442 160.978 101.337C161.07 101.082 161.108 100.811 161.089 100.54C161.07 100.27 160.994 100.007 160.867 99.7675C160.74 99.5282 160.564 99.3181 160.351 99.1507C160.138 98.9833 159.893 98.8624 159.63 98.7958C158.019 98.4588 155.869 100.494 155.141 101.761C155.101 101.842 154.676 102.813 154.467 103.352C154.4 102.799 154.339 102.24 154.258 101.68C154.022 100.056 153.733 98.4183 153.449 96.7872C153.362 96.2885 153.281 95.7897 153.2 95.291C153.422 95.291 156.078 95.5403 157.244 95.1359C158.275 94.772 159.488 94.0171 159.846 92.9117C159.938 92.6569 159.975 92.3857 159.956 92.1154C159.937 91.8451 159.862 91.5819 159.735 91.3425C159.608 91.1032 159.432 90.8931 159.219 90.7257C159.006 90.5583 158.76 90.4374 158.498 90.3708C156.894 90.0338 154.744 92.0692 154.016 93.3364C153.962 93.4375 153.342 94.8326 153.22 95.1966C153.038 94.098 152.87 92.9994 152.748 91.9142C152.572 90.4427 152.491 88.9613 152.506 87.4793C152.614 87.4793 155.384 87.7489 156.55 87.3243C157.581 86.9603 158.794 86.2122 159.151 85.1068C159.243 84.8497 159.28 84.5762 159.258 84.3041C159.237 84.032 159.159 83.7674 159.028 83.5276C158.898 83.2878 158.719 83.0782 158.502 82.9125C158.285 82.7468 158.035 82.6286 157.77 82.5658C156.166 82.2288 154.009 84.2576 153.288 85.5314C153.227 85.6325 152.614 87.1423 152.486 87.4186C152.486 87.3378 152.486 87.2434 152.486 87.1625C152.548 85.6775 152.737 84.2005 153.052 82.7478C153.22 81.9458 153.422 81.1909 153.638 80.4562C154.15 80.5573 156.489 80.9887 157.601 80.7258C158.713 80.463 159.954 79.8698 160.425 78.8117C160.547 78.5657 160.615 78.2969 160.626 78.0227C160.636 77.7485 160.589 77.4752 160.486 77.2207C160.384 76.9662 160.229 76.7362 160.031 76.5457C159.834 76.3553 159.598 76.2087 159.34 76.1157C157.777 75.6034 155.418 77.3895 154.555 78.5758C154.508 78.6364 154.103 79.3441 153.813 79.8698C153.914 79.5396 154.016 79.1958 154.117 78.8791C154.508 77.6996 154.932 76.6481 155.323 75.7113C155.546 75.1855 155.755 74.7137 155.963 74.2689C156.516 74.1071 158.734 73.4264 159.583 72.6917C160.432 71.9571 161.281 70.845 161.207 69.6857C161.2 69.4134 161.136 69.1457 161.019 68.8999C160.901 68.6541 160.733 68.4358 160.526 68.259C160.319 68.0823 160.077 67.9512 159.816 67.8742C159.554 67.7971 159.28 67.776 159.01 67.812C157.386 68.0816 156.112 70.7506 155.896 72.1997C155.896 72.3278 155.802 74.3161 155.835 74.3093H155.869C155.66 74.734 155.444 75.1855 155.195 75.6573C154.791 76.5807 154.339 77.6322 153.921 78.8117C153.46 80.0726 153.076 81.36 152.769 82.6669C152.413 84.127 152.188 85.6156 152.095 87.1153V87.1693C151.973 86.7042 151.596 85.4169 151.555 85.3158C150.989 83.9678 149.102 81.6896 147.464 81.8312C147.193 81.8613 146.931 81.9485 146.696 82.0871C146.46 82.2257 146.257 82.4126 146.099 82.6354C145.941 82.8583 145.832 83.1121 145.779 83.38C145.727 83.648 145.731 83.9241 145.793 84.1902C146.008 85.3292 147.141 86.2122 148.098 86.7042C149.21 87.2501 151.886 87.3782 152.095 87.3782C152.042 88.9096 152.089 90.4429 152.236 91.9681C152.324 92.8578 152.432 93.7475 152.553 94.6641C152.438 94.2665 152.331 93.9093 152.31 93.8621C151.744 92.5141 149.85 90.236 148.219 90.3775C147.948 90.4079 147.687 90.4949 147.452 90.6331C147.217 90.7712 147.014 90.9572 146.855 91.1791C146.697 91.4011 146.587 91.6538 146.533 91.921C146.479 92.1882 146.481 92.4637 146.541 92.7298C146.757 93.8688 147.889 94.7518 148.853 95.2505C149.817 95.7493 152.128 95.8639 152.728 95.8908C152.782 96.2278 152.829 96.5648 152.877 96.9153C153.126 98.5531 153.382 100.191 153.584 101.802C153.652 102.368 153.699 102.934 153.753 103.494C153.652 103.136 153.557 102.82 153.537 102.82C152.971 101.472 151.084 99.1867 149.446 99.3282C149.175 99.3593 148.913 99.4472 148.679 99.5861C148.444 99.725 148.241 99.9119 148.083 100.134C147.926 100.357 147.817 100.61 147.763 100.878C147.71 101.145 147.714 101.421 147.774 101.687C147.99 102.826 149.122 103.709 150.079 104.201C151.037 104.693 153.133 104.808 153.854 104.835C153.888 105.414 153.921 105.994 153.928 106.554C153.928 106.938 153.928 107.308 153.928 107.693C153.928 108.077 153.894 108.447 153.874 108.825C153.82 109.539 153.766 110.281 153.692 110.982C153.645 111.474 153.591 111.932 153.537 112.404C153.47 111.838 153.321 110.732 153.301 110.638C152.942 109.4 152.271 108.274 151.353 107.369C151.317 107.231 151.27 107.095 151.212 106.965C151.107 106.712 150.951 106.485 150.752 106.298C150.554 106.11 150.318 105.966 150.061 105.876C149.803 105.786 149.529 105.751 149.257 105.773C148.985 105.796 148.721 105.876 148.482 106.008C147.067 106.837 146.837 109.782 147.134 111.218C147.134 111.298 147.458 112.195 147.66 112.754C147.491 112.444 147.33 112.141 147.148 111.817C146.804 111.191 146.44 110.571 146.049 109.897L145.442 108.939C145.247 108.616 145.004 108.299 144.768 107.969C144.236 107.228 143.663 106.5 143.07 105.778C143.623 105.475 145.57 104.363 146.231 103.487C146.891 102.611 147.491 101.317 147.174 100.204C147.108 99.941 146.987 99.6945 146.819 99.4808C146.651 99.2672 146.44 99.0911 146.2 98.9641C145.96 98.837 145.696 98.7618 145.425 98.7432C145.154 98.7247 144.882 98.7632 144.627 98.8564C143.097 99.463 142.423 102.341 142.517 103.804C142.517 103.898 142.713 104.936 142.827 105.509C142.463 105.077 142.106 104.646 141.729 104.221C140.637 103.002 139.491 101.802 138.359 100.595L137.327 99.4832C137.523 99.3754 139.868 98.1352 140.61 97.1242C141.284 96.248 141.87 94.954 141.553 93.8419C141.487 93.5776 141.366 93.3304 141.197 93.1161C141.029 92.9018 140.818 92.7254 140.577 92.5982C140.336 92.4711 140.071 92.3961 139.799 92.3781C139.527 92.3601 139.254 92.3996 138.999 92.4939C137.476 93.0937 136.802 95.9784 136.896 97.441C136.896 97.5489 137.172 99.0519 137.26 99.4293C136.505 98.6138 135.757 97.7915 135.049 96.949C134.094 95.8176 133.212 94.6267 132.407 93.3835C132.502 93.3364 134.955 92.0355 135.71 91.0178C136.384 90.1416 136.97 88.8475 136.653 87.7354C136.587 87.472 136.466 87.2255 136.298 87.0118C136.13 86.7982 135.919 86.6221 135.679 86.4951C135.439 86.368 135.175 86.2928 134.904 86.2742C134.633 86.2557 134.361 86.2942 134.106 86.3874C132.582 86.9873 131.902 89.872 132.003 91.3346C132.003 91.4492 132.299 93.06 132.373 93.3566L132.225 93.1409C131.455 91.8715 130.798 90.5363 130.264 89.1508C129.961 88.3892 129.711 87.6478 129.489 86.9131C129.967 86.7177 132.185 85.7876 132.946 84.9585C133.708 84.1295 134.436 82.9365 134.24 81.7975C134.205 81.5272 134.112 81.2674 133.97 81.0351C133.827 80.8028 133.637 80.6033 133.412 80.4494C133.186 80.2955 132.931 80.1908 132.663 80.142C132.395 80.0933 132.119 80.1016 131.854 80.1664C130.271 80.5978 129.287 83.3881 129.219 84.8844C129.219 84.9653 129.273 85.7808 129.32 86.3739C129.219 86.0437 129.118 85.6999 129.03 85.3832C128.7 84.1834 128.478 83.0713 128.282 82.0806C128.174 81.5144 128.094 81.0022 128.019 80.5236C128.39 80.0788 129.866 78.2859 130.176 77.2075C130.486 76.1291 130.567 74.7272 129.873 73.8375C129.717 73.6136 129.515 73.4251 129.281 73.2843C129.048 73.1436 128.787 73.0537 128.516 73.0206C128.245 72.9876 127.97 73.012 127.709 73.0924C127.448 73.1727 127.207 73.3072 127.002 73.4871C125.795 74.5992 126.206 77.5311 126.82 78.8791C126.874 78.9936 127.918 80.6921 127.932 80.6719C127.992 81.137 128.06 81.629 128.154 82.1682C128.323 83.1657 128.525 84.2913 128.828 85.4977C129.139 86.8043 129.526 88.0916 129.987 89.353C130.498 90.7685 131.134 92.1355 131.888 93.4375C131.889 93.4532 131.889 93.4689 131.888 93.4846C131.531 93.1611 130.54 92.2917 130.419 92.2377C129.199 91.4222 126.375 90.5662 125.081 91.5637C124.871 91.7391 124.702 91.9566 124.582 92.2021C124.463 92.4476 124.396 92.7155 124.387 92.9884C124.378 93.2613 124.427 93.533 124.53 93.7857C124.634 94.0385 124.789 94.2666 124.986 94.4552C125.869 95.082 127.285 95.2101 128.377 95.0753Z" fill="#5A189A"/>
<path d="M153.456 80.166C153.456 80.166 153.456 78.144 153.456 78.0496C153.268 76.6005 152.048 73.9045 150.43 73.608C150.16 73.5671 149.885 73.5833 149.622 73.6554C149.359 73.7276 149.114 73.8542 148.904 74.027C148.693 74.1999 148.52 74.415 148.398 74.6586C148.275 74.9022 148.205 75.1689 148.192 75.4412C148.098 76.5938 148.94 77.7463 149.756 78.4742C150.7 79.3302 153.456 80.166 153.456 80.166Z" fill="#5A189A"/>
<path d="M39.4558 278.782C40.6555 278.391 42.7247 276.463 42.7247 276.463C42.7247 276.463 41.0397 275.486 40.9251 275.439C39.5771 274.879 36.7126 274.583 35.6612 275.803C35.4934 276.011 35.3712 276.252 35.3023 276.511C35.2334 276.769 35.2195 277.039 35.2614 277.303C35.3034 277.567 35.4002 277.82 35.5456 278.044C35.6911 278.269 35.882 278.46 36.106 278.606C37.0699 279.253 38.4179 279.112 39.4558 278.782Z" fill="#5A189A"/>
<path d="M45.6297 284.254C46.6407 283.58 48.0426 281.362 48.1504 281.18C49.4189 281.986 50.7408 282.704 52.1068 283.33C52.9021 283.701 53.7109 284.045 54.5265 284.388L53.7244 284.193C52.3023 284.004 49.4378 284.483 48.7436 285.939C48.6366 286.184 48.5823 286.449 48.5843 286.717C48.5862 286.985 48.6443 287.249 48.7549 287.493C48.8654 287.737 49.0259 287.955 49.2259 288.133C49.426 288.311 49.6612 288.445 49.9163 288.527C50.988 288.904 52.2955 288.399 53.192 287.812C54.0884 287.226 55.3353 285.339 55.6521 284.84L56.5957 285.217C58.1054 285.824 59.6219 286.417 61.0845 287.044C61.6035 287.266 62.1022 287.502 62.6077 287.718L61.9337 287.549C60.5116 287.361 57.6471 287.839 56.9529 289.295C56.8459 289.541 56.7916 289.806 56.7936 290.074C56.7955 290.341 56.8536 290.606 56.9642 290.85C57.0747 291.094 57.2352 291.312 57.4353 291.49C57.6353 291.668 57.8705 291.802 58.1256 291.883C59.1973 292.261 60.5049 291.755 61.4013 291.169C62.2977 290.582 63.4233 288.877 63.8007 288.284C64.3062 288.54 64.8185 288.796 65.297 289.066C65.6205 289.261 65.971 289.423 66.2608 289.632L67.1909 290.239C67.7773 290.643 68.3772 291.054 68.9299 291.465C69.3208 291.742 69.6847 292.018 70.0554 292.294C69.5432 292.072 68.5322 291.62 68.4446 291.62C67.0629 291.223 64.1579 291.256 63.2548 292.591C63.1086 292.819 63.0123 293.075 62.9722 293.342C62.9322 293.61 62.9494 293.883 63.0226 294.144C63.0959 294.404 63.2235 294.646 63.3972 294.854C63.5708 295.061 63.7864 295.23 64.0299 295.348C65.0274 295.887 66.3956 295.584 67.3999 295.139C68.4783 294.64 70.1363 292.739 70.3453 292.503C70.9519 292.962 71.545 293.413 72.0909 293.851C73.2098 294.734 74.1871 295.55 75.0296 296.271L75.8114 295.597C74.9285 294.869 73.8703 294.033 72.6773 293.123C72.0572 292.652 71.39 292.166 70.6957 291.668C71.0633 290.943 71.383 290.196 71.6528 289.43C72.9323 289.413 74.2029 289.215 75.4272 288.844C75.6833 289.565 75.926 290.266 76.1417 290.933C76.5595 292.2 76.91 293.353 77.1998 294.364L78.0423 293.615C77.7593 292.712 77.429 291.708 77.0448 290.63C76.7887 289.895 76.5056 289.12 76.2023 288.325C76.4652 288.17 78.6557 286.896 79.3432 285.932C80.0306 284.968 80.5227 283.775 80.1857 282.69C80.1153 282.432 79.9914 282.192 79.8218 281.985C79.6523 281.778 79.4411 281.609 79.2019 281.49C78.9627 281.37 78.701 281.302 78.4338 281.291C78.1666 281.279 77.9 281.324 77.6514 281.423C76.1686 282.05 75.5755 284.894 75.7103 286.33C75.7103 286.41 75.9058 287.32 76.0338 287.893L75.6564 286.923C75.3935 286.249 75.1172 285.615 74.8206 284.901C74.6656 284.564 74.5038 284.227 74.3488 283.89C74.1938 283.553 73.9983 283.216 73.8231 282.865C73.3985 282.077 72.9267 281.295 72.4751 280.526C73.048 280.297 75.0835 279.455 75.8451 278.68C76.6067 277.905 77.3346 276.725 77.1931 275.599C77.162 275.333 77.0752 275.077 76.9384 274.847C76.8016 274.617 76.6179 274.418 76.3991 274.263C76.1804 274.109 75.9317 274.002 75.669 273.95C75.4063 273.898 75.1356 273.902 74.8745 273.962C73.3176 274.359 72.3066 277.082 72.219 278.518C72.219 278.612 72.2662 279.65 72.3066 280.216C72.01 279.751 71.7135 279.286 71.3967 278.828C70.4801 277.48 69.5162 276.193 68.5592 274.878C68.2626 274.474 67.9795 274.069 67.6897 273.665C67.8919 273.591 70.3318 272.641 71.1743 271.778C72.0168 270.915 72.6706 269.823 72.5223 268.698C72.4911 268.432 72.4044 268.175 72.2676 267.945C72.1308 267.715 71.947 267.516 71.7283 267.362C71.5096 267.207 71.2608 267.1 70.9982 267.048C70.7355 266.996 70.4648 267 70.2037 267.06C68.6468 267.458 67.629 270.18 67.5077 271.616C67.5077 271.724 67.5819 273.213 67.6223 273.598C66.9483 272.708 66.3552 271.812 65.7755 270.902C64.9802 269.685 64.2664 268.418 63.639 267.107C63.7333 267.067 66.2878 266.089 67.1505 265.206C67.8986 264.438 68.6468 263.252 68.4985 262.126C68.4727 261.845 68.3846 261.573 68.2406 261.33C68.0967 261.088 67.9004 260.88 67.6661 260.722C67.4318 260.565 67.1654 260.462 66.8861 260.42C66.6069 260.378 66.3219 260.399 66.0519 260.482C64.4882 260.879 63.4772 263.602 63.3896 265.038C63.3896 265.152 63.4705 266.757 63.5042 267.06C63.5042 266.986 63.4233 266.912 63.3896 266.831C62.7942 265.501 62.3205 264.121 61.9742 262.706C61.772 261.924 61.617 261.169 61.4889 260.434C61.9809 260.3 64.2321 259.666 65.1015 258.952C65.971 258.237 66.8 257.172 66.7528 256.033C66.7508 255.766 66.6925 255.502 66.5818 255.258C66.4711 255.015 66.3104 254.797 66.1102 254.62C65.91 254.443 65.6747 254.309 65.4197 254.229C65.1646 254.148 64.8955 254.122 64.6297 254.153C63.0391 254.375 61.7315 256.977 61.4889 258.392C61.4889 258.466 61.4215 259.268 61.3945 259.848C61.3474 259.518 61.28 259.174 61.2395 258.851C61.0643 257.644 60.9834 256.525 60.9227 255.541C60.9227 254.975 60.8688 254.47 60.8553 253.991C61.2732 253.607 62.9313 252.043 63.3626 251.032C63.794 250.021 64.0366 248.666 63.4839 247.662C63.3582 247.426 63.1841 247.22 62.9731 247.056C62.7622 246.892 62.519 246.774 62.2595 246.711C62.0001 246.647 61.7301 246.639 61.4672 246.687C61.2044 246.735 60.9545 246.837 60.734 246.988C59.4265 247.925 59.4602 250.83 59.8983 252.198C59.9387 252.313 60.7408 254.099 60.761 254.079C60.761 254.537 60.761 255.029 60.761 255.568C60.8014 256.559 60.8621 257.678 61.0104 258.891C61.1588 260.202 61.3839 261.502 61.6844 262.787C62.011 264.227 62.4621 265.637 63.0324 266.999C63.0336 267.015 63.0336 267.031 63.0324 267.046C62.7223 266.689 61.8326 265.698 61.7518 265.644C60.6666 264.708 58.0111 263.521 56.6361 264.357C56.4118 264.502 56.2204 264.693 56.0743 264.916C55.9282 265.14 55.8308 265.392 55.7882 265.655C55.7456 265.919 55.7589 266.189 55.8272 266.447C55.8954 266.705 56.0172 266.946 56.1845 267.154C56.8585 268.064 58.2065 268.367 59.3119 268.367C60.5251 268.367 62.9178 267.289 63.1065 267.201C63.7214 268.571 64.4285 269.897 65.2229 271.171C65.6812 271.919 66.1665 272.654 66.6585 273.389C66.3821 273.092 66.1395 272.823 66.0991 272.789C65.0139 271.845 62.3584 270.666 60.9834 271.495C60.7572 271.639 60.5641 271.829 60.4167 272.054C60.2693 272.278 60.1711 272.531 60.1285 272.795C60.0858 273.06 60.0997 273.331 60.1692 273.59C60.2387 273.849 60.3623 274.091 60.5318 274.299C61.2058 275.209 62.5538 275.505 63.6524 275.512C64.7511 275.519 66.8068 274.629 67.346 274.386L67.9256 275.229C68.8557 276.577 69.7858 277.891 70.662 279.226C70.9721 279.691 71.2619 280.169 71.545 280.641C71.3023 280.371 71.0934 280.149 71.0597 280.122C69.9746 279.178 67.319 277.992 65.944 278.828C65.718 278.971 65.525 279.161 65.3777 279.385C65.2304 279.608 65.1321 279.861 65.0895 280.125C65.0468 280.389 65.0607 280.66 65.1301 280.918C65.1996 281.177 65.3231 281.418 65.4925 281.625C66.1665 282.535 67.5145 282.838 68.6198 282.838C69.7252 282.838 71.5652 282.043 72.2122 281.76C72.4886 282.252 72.7717 282.744 73.021 283.236C73.1895 283.573 73.3715 283.91 73.5131 284.24C73.6546 284.57 73.8164 284.914 73.9646 285.258C74.2208 285.932 74.4971 286.606 74.733 287.239C74.9082 287.691 75.0565 288.122 75.2115 288.554C74.915 288.089 74.3016 287.206 74.241 287.105C73.387 286.173 72.3077 285.477 71.1069 285.083C71.0178 284.972 70.916 284.873 70.8036 284.786C70.6063 284.621 70.3775 284.498 70.1312 284.425C69.8848 284.351 69.6261 284.328 69.3707 284.358C69.1153 284.388 68.8686 284.469 68.6456 284.597C68.4227 284.725 68.2282 284.897 68.0739 285.103C67.1842 286.451 68.2626 289.147 69.159 290.266C69.2129 290.326 69.8735 290.987 70.2913 291.391L69.4421 290.785C68.8625 290.38 68.2693 289.996 67.6358 289.571L66.6922 288.992C66.3754 288.79 66.0182 288.621 65.6812 288.426C64.8926 288.001 64.0771 287.61 63.2413 287.239C63.5918 286.727 64.8252 284.907 65.0274 283.869C65.2296 282.831 65.1959 281.416 64.4343 280.574C64.2616 280.369 64.0478 280.203 63.8067 280.086C63.5657 279.97 63.3027 279.905 63.0351 279.897C62.7674 279.888 62.501 279.937 62.2532 280.038C62.0054 280.14 61.7817 280.292 61.5967 280.486C60.5183 281.679 61.1721 284.53 61.8933 285.75C61.9337 285.831 62.5673 286.667 62.9043 287.098C62.3988 286.875 61.8933 286.653 61.3811 286.424C59.8848 285.824 58.3548 285.258 56.8316 284.692L55.4364 284.166C55.5644 283.984 57.0742 281.847 57.3034 280.661C57.5056 279.603 57.4719 278.208 56.7102 277.359C56.537 277.155 56.323 276.99 56.082 276.874C55.8409 276.758 55.5783 276.693 55.3109 276.685C55.0436 276.677 54.7775 276.725 54.5297 276.826C54.282 276.927 54.0582 277.078 53.8727 277.271C52.7943 278.464 53.4481 281.315 54.1693 282.542C54.2232 282.636 55.1129 283.836 55.3555 284.132C54.331 283.741 53.3335 283.344 52.3292 282.912C51.0001 282.33 49.708 281.666 48.4605 280.924C48.5144 280.836 50.105 278.619 50.3342 277.399C50.5364 276.348 50.5027 274.946 49.7411 274.103C49.5689 273.898 49.3555 273.731 49.1147 273.614C48.8738 273.497 48.611 273.432 48.3434 273.423C48.0757 273.414 47.8091 273.462 47.5611 273.563C47.313 273.663 47.089 273.816 46.9035 274.009C45.8251 275.209 46.4857 278.053 47.2001 279.279C47.2608 279.381 48.2178 280.668 48.4066 280.89L48.1841 280.769C46.954 279.987 45.7968 279.096 44.7265 278.107C44.1267 277.568 43.5807 277.022 43.0685 276.476C43.4055 276.091 44.9287 274.326 45.259 273.254C45.5892 272.182 45.6971 270.828 45.0298 269.884C44.8813 269.662 44.6876 269.473 44.4613 269.331C44.235 269.189 43.9813 269.096 43.7168 269.059C43.4522 269.021 43.1826 269.04 42.9258 269.113C42.6689 269.187 42.4304 269.314 42.226 269.486C41.0195 270.551 41.3633 273.436 41.9362 274.757C41.9362 274.824 42.3675 275.519 42.6708 276.024C42.4417 275.768 42.199 275.519 41.9968 275.276C41.188 274.366 40.5073 273.476 39.9074 272.688C39.5704 272.243 39.2739 271.825 39.0043 271.434C39.1391 270.888 39.6783 268.664 39.4558 267.579C39.2334 266.494 38.7279 265.233 37.7102 264.721C37.4751 264.588 37.2145 264.507 36.9455 264.482C36.6765 264.458 36.4055 264.491 36.1504 264.58C35.8953 264.669 35.662 264.811 35.4661 264.996C35.2702 265.182 35.1161 265.408 35.0142 265.658C34.4345 267.161 36.0724 269.56 37.1912 270.464C37.2856 270.544 38.9436 271.589 38.9503 271.562V271.528C39.2065 271.906 39.4828 272.317 39.7928 272.755C40.3792 273.557 41.0465 274.454 41.8148 275.39C42.6564 276.404 43.5567 277.367 44.5108 278.275C45.5731 279.305 46.7258 280.236 47.955 281.059H48.0022C47.5506 280.931 46.2632 280.614 46.1621 280.601C44.74 280.412 41.8755 280.89 41.1813 282.346C41.0743 282.592 41.02 282.857 41.022 283.125C41.0239 283.392 41.082 283.657 41.1926 283.901C41.3031 284.145 41.4636 284.363 41.6637 284.541C41.8637 284.719 42.0989 284.853 42.354 284.934C43.4257 285.345 44.7333 284.84 45.6297 284.254Z" fill="#5A189A"/>
<path d="M61.2328 260.239C61.2665 260.239 60.3701 258.493 60.3027 258.386C59.5006 257.193 57.2562 255.353 55.706 255.791C55.4505 255.87 55.2147 256.003 55.0141 256.18C54.8134 256.358 54.6525 256.575 54.5418 256.819C54.4311 257.063 54.3731 257.327 54.3716 257.595C54.3701 257.862 54.4252 258.127 54.5332 258.372C54.9511 259.43 56.1913 260.084 57.2292 260.394C58.4424 260.704 61.2328 260.239 61.2328 260.239Z" fill="#5A189A"/>
<path d="M155.013 92.1758L148.981 97.4802" stroke="#5A189A" stroke-linecap="round" stroke-linejoin="round"/>
<path d="M208.697 44.9824L173.602 75.8314" stroke="#5A189A" stroke-linecap="round" stroke-linejoin="round"/>
<path d="M203.447 43.668L169.322 56.137" stroke="#5A189A" stroke-linecap="round" stroke-linejoin="round"/>
<path d="M172.194 38.5664L150.289 40.3862" stroke="#5A189A" stroke-linecap="round" stroke-linejoin="round"/>
<path d="M197.536 36.4492L174.64 38.3566" stroke="#5A189A" stroke-linecap="round" stroke-linejoin="round"/>
<path d="M187.83 22.8482L165.009 15.2051" stroke="#5A189A" stroke-linecap="round" stroke-linejoin="round"/>
<path d="M195.568 25.2939L191.005 23.8516" stroke="#5A189A" stroke-linecap="round" stroke-linejoin="round"/>
<path d="M287.312 92.1758L293.345 97.4802" stroke="#5A189A" stroke-linecap="round" stroke-linejoin="round"/>
<path d="M233.628 44.9824L283.599 88.9137" stroke="#5A189A" stroke-linecap="round" stroke-linejoin="round"/>
<path d="M238.879 43.668L273.004 56.137" stroke="#5A189A" stroke-linecap="round" stroke-linejoin="round"/>
<path d="M270.126 38.5664L292.031 40.3862" stroke="#5A189A" stroke-linecap="round" stroke-linejoin="round"/>
<path d="M244.783 36.4492L267.686 38.3566" stroke="#5A189A" stroke-linecap="round" stroke-linejoin="round"/>
<path d="M254.496 22.8491L271.932 17.3223" stroke="#5A189A" stroke-linecap="round" stroke-linejoin="round"/>
<path d="M246.751 25.2939L251.321 23.8516" stroke="#5A189A" stroke-linecap="round" stroke-linejoin="round"/>
<path d="M221.82 39.3008H218.208V54.6815H221.82V39.3008Z" fill="#6C63FF" stroke="#5A189A" stroke-linecap="round" stroke-linejoin="round"/>
<path d="M225.352 57.9786H214.676L215.936 52.0137H224.092L225.352 57.9786Z" fill="#6C63FF" stroke="#5A189A" stroke-linecap="round" stroke-linejoin="round"/>
<path d="M231.782 60.4853H208.246L210.753 54.9922H229.274L231.782 60.4853Z" fill="#6C63FF" stroke="#5A189A" stroke-linecap="round" stroke-linejoin="round"/>
<path d="M208.084 23.0172C206.401 22.985 204.746 23.4549 203.33 24.3668C201.915 25.2788 200.803 26.5915 200.136 28.1377C199.47 29.6839 199.278 31.3936 199.587 33.0489C199.896 34.7041 200.69 36.23 201.869 37.432C203.048 38.6341 204.559 39.4578 206.208 39.7983C207.857 40.1388 209.57 39.9806 211.129 39.3439C212.687 38.7072 214.021 37.6207 214.96 36.2231C215.899 34.8255 216.401 33.1799 216.401 31.4961C216.412 30.3932 216.205 29.2991 215.793 28.2761C215.381 27.2531 214.771 26.3213 213.999 25.534C213.226 24.7466 212.307 24.1191 211.292 23.6873C210.277 23.2554 209.187 23.0277 208.084 23.0172ZM208.084 37.8452C206.829 37.8679 205.595 37.5164 204.54 36.8354C203.486 36.1544 202.657 35.1747 202.161 34.0213C201.666 32.8679 201.524 31.5929 201.756 30.3589C201.987 29.1249 202.581 27.9877 203.461 27.0923C204.341 26.1969 205.468 25.5839 206.697 25.3313C207.927 25.0786 209.205 25.1979 210.366 25.6739C211.528 26.1499 212.522 26.9611 213.221 28.0039C213.92 29.0468 214.293 30.2743 214.292 31.5298C214.297 33.1846 213.647 34.7743 212.484 35.9514C211.321 37.1285 209.739 37.7972 208.084 37.8115V37.8452Z" fill="#6C63FF" stroke="#5A189A" stroke-linecap="round" stroke-linejoin="round"/>
<path d="M233.204 23.0172C231.521 22.985 229.866 23.4549 228.45 24.3668C227.035 25.2788 225.923 26.5915 225.256 28.1377C224.59 29.6839 224.399 31.3936 224.707 33.0489C225.016 34.7041 225.81 36.23 226.989 37.432C228.169 38.6341 229.679 39.4578 231.328 39.7983C232.977 40.1388 234.69 39.9806 236.249 39.3439C237.807 38.7072 239.141 37.6207 240.08 36.2231C241.019 34.8255 241.521 33.1799 241.521 31.4961C241.532 30.3932 241.325 29.2991 240.913 28.2761C240.501 27.2531 239.891 26.3213 239.119 25.534C238.347 24.7466 237.427 24.1191 236.412 23.6873C235.397 23.2554 234.307 23.0277 233.204 23.0172ZM233.204 37.8452C231.949 37.8693 230.714 37.5189 229.659 36.8387C228.603 36.1585 227.774 35.1794 227.277 34.0261C226.78 32.8728 226.638 31.5977 226.868 30.3632C227.099 29.1288 227.692 27.991 228.572 27.0949C229.452 26.1988 230.578 25.5851 231.808 25.3319C233.038 25.0787 234.316 25.1976 235.478 25.6734C236.64 26.1492 237.634 26.9603 238.334 28.0033C239.033 29.0463 239.406 30.274 239.405 31.5298C239.41 33.1835 238.761 34.7722 237.6 35.949C236.438 37.1259 234.858 37.7955 233.204 37.8115V37.8452Z" fill="#6C63FF" stroke="#5A189A" stroke-linecap="round" stroke-linejoin="round"/>
<path d="M220.014 43.5342C218.633 43.535 217.266 43.2639 215.991 42.7362C214.715 42.2086 213.556 41.4347 212.58 40.4589C211.603 39.4831 210.828 38.3244 210.3 37.0492C209.772 35.7739 209.5 34.4069 209.5 33.0265V22.1953H230.508V33.0265C230.508 35.811 229.403 38.4816 227.435 40.4518C225.468 42.422 222.798 43.5306 220.014 43.5342Z" fill="#6C63FF" stroke="#5A189A" stroke-linecap="round" stroke-linejoin="round"/>
<path d="M219.724 25.6523L221.079 29.8177H225.46L221.915 32.3923L223.269 36.5577L219.724 33.983L216.179 36.5577L217.534 32.3923L213.988 29.8177H218.369L219.724 25.6523Z" fill="#5A189A"/>
<path d="M254.745 60.5391H185.728V123.464H254.745V60.5391Z" fill="#5A189A" stroke="#5A189A" stroke-linejoin="round"/>
<path d="M231.6 60.5391H185.728V123.464H231.6V60.5391Z" fill="white" stroke="#5A189A" stroke-linejoin="round"/>
<path d="M201.614 91.7988H132.596V154.723H201.614V91.7988Z" fill="#5A189A" stroke="#5A189A" stroke-linejoin="round"/>
<path d="M178.469 91.7988H132.596V154.723H178.469V91.7988Z" fill="white" stroke="#5A189A" stroke-linejoin="round"/>
<path d="M163.782 109.627V104.599H160.634C160.394 103.721 160.036 102.88 159.569 102.099L161.517 100.144L157.958 96.5854L156.017 98.5265C155.147 97.9989 154.201 97.6058 153.213 97.3605V95.0352H148.179V97.3605C147.092 97.6394 146.058 98.0948 145.119 98.7085L143.73 97.32L140.192 100.859L141.695 102.362C141.133 103.369 140.748 104.466 140.556 105.603H138.642V110.638H140.933C141.282 111.679 141.794 112.657 142.45 113.536L140.9 115.087L144.438 118.625L146.359 116.704C147.257 117.122 148.21 117.408 149.19 117.553V120.175H154.218V117.041C155.053 116.738 155.846 116.328 156.577 115.821L158.673 117.917L162.232 114.359L159.893 112.02C160.283 111.255 160.575 110.445 160.762 109.607L163.782 109.627ZM150.699 113.671C149.454 113.673 148.236 113.305 147.2 112.614C146.164 111.923 145.356 110.94 144.879 109.79C144.401 108.64 144.276 107.374 144.518 106.152C144.76 104.931 145.359 103.808 146.239 102.927C147.119 102.046 148.241 101.446 149.462 101.202C150.683 100.959 151.95 101.083 153.1 101.559C154.251 102.036 155.234 102.843 155.926 103.878C156.619 104.913 156.988 106.131 156.988 107.376C156.984 109.042 156.32 110.639 155.142 111.816C153.963 112.994 152.366 113.656 150.699 113.658V113.671Z" fill="#6C63FF"/>
<path d="M168.386 129.578V125.877H166.074C165.892 125.232 165.627 124.614 165.285 124.037L166.721 122.602L164.106 119.973L162.677 121.402C162.036 121.014 161.341 120.726 160.614 120.546V118.834H156.914V120.546C156.115 120.745 155.354 121.075 154.663 121.523L153.672 120.512L151.057 123.127L152.162 124.233C151.751 124.976 151.466 125.782 151.32 126.619H149.918V130.319H151.603C151.858 131.084 152.233 131.803 152.715 132.449L151.576 133.588L154.191 136.203L155.607 134.794C156.266 135.098 156.965 135.306 157.682 135.414V137.342H161.383V135.044C161.994 134.813 162.574 134.505 163.108 134.127L164.652 135.671L167.267 133.055L165.548 131.337C165.834 130.775 166.047 130.179 166.182 129.564L168.386 129.578ZM158.768 132.536C157.853 132.536 156.959 132.265 156.199 131.757C155.438 131.249 154.846 130.527 154.496 129.682C154.146 128.837 154.054 127.908 154.233 127.011C154.411 126.114 154.852 125.29 155.498 124.643C156.145 123.997 156.969 123.556 157.866 123.378C158.762 123.2 159.692 123.291 160.537 123.641C161.382 123.991 162.104 124.584 162.612 125.344C163.12 126.104 163.391 126.998 163.391 127.913C163.391 128.52 163.272 129.121 163.039 129.682C162.807 130.243 162.466 130.753 162.037 131.182C161.608 131.612 161.098 131.952 160.537 132.184C159.976 132.417 159.375 132.536 158.768 132.536Z" fill="#6C63FF"/>
<path d="M239.775 132.4H170.758V195.325H239.775V132.4Z" fill="#5A189A" stroke="#5A189A" stroke-linejoin="round"/>
<path d="M216.63 132.4H170.758V195.325H216.63V132.4Z" fill="white" stroke="#5A189A" stroke-linejoin="round"/>
<path d="M205.388 143.361L201.405 140.422C200.652 139.866 199.748 139.552 198.812 139.522C197.877 139.492 196.955 139.747 196.168 140.254L188.268 144.972C187.852 145.228 187.546 145.63 187.411 146.1C187.276 146.57 187.323 147.074 187.541 147.511C187.759 147.949 188.134 148.288 188.59 148.463C189.047 148.638 189.552 148.636 190.007 148.457L197.388 145.922L206.244 155.089L211.751 153.168V141.959L205.388 143.361Z" fill="#6C63FF"/>
<path d="M196.41 147.161L189.057 149.695C187.709 150.275 186.246 148.037 186.246 146.581C186.246 144.701 188.039 144.182 189.448 142.935L190.796 141.749C190.07 141.088 189.162 140.66 188.19 140.52C187.217 140.381 186.226 140.537 185.343 140.967C183.226 142.004 180.791 142.187 178.542 141.479L176.588 140.866V153.321L179.082 153.631L179.318 153.429C180.133 152.73 181.187 152.374 182.259 152.435C183.331 152.497 184.337 152.972 185.067 153.759L193.91 163.269C194.11 163.484 194.384 163.614 194.677 163.634C194.97 163.654 195.259 163.562 195.487 163.377C195.607 163.279 195.706 163.157 195.777 163.019C195.849 162.881 195.892 162.73 195.904 162.576C195.916 162.421 195.897 162.265 195.847 162.118C195.797 161.971 195.718 161.835 195.615 161.719L193.404 159.239L196.471 161.261C196.767 161.44 197.117 161.506 197.458 161.448C197.798 161.391 198.107 161.212 198.327 160.946C198.548 160.68 198.665 160.344 198.659 159.998C198.652 159.653 198.521 159.321 198.291 159.064L196.511 157.217L199.207 158.922C199.532 159.118 199.916 159.192 200.29 159.13C200.664 159.068 201.004 158.874 201.248 158.584C201.492 158.294 201.624 157.926 201.62 157.547C201.617 157.167 201.478 156.802 201.229 156.516L199.632 154.73L202.557 156.503C202.778 156.636 203.034 156.698 203.291 156.68C203.548 156.662 203.793 156.565 203.993 156.401C204.13 156.29 204.241 156.15 204.32 155.992C204.399 155.834 204.444 155.661 204.451 155.485C204.458 155.308 204.427 155.132 204.361 154.968C204.295 154.804 204.194 154.657 204.067 154.534L196.41 147.161Z" fill="#6C63FF"/>
<path d="M182.654 158.141L183.786 156.712C184.014 156.404 184.113 156.02 184.063 155.64C184.013 155.26 183.817 154.915 183.517 154.677C183.217 154.439 182.836 154.327 182.455 154.365C182.074 154.402 181.722 154.586 181.474 154.878L180.342 156.307C180.114 156.615 180.015 157 180.065 157.379C180.115 157.759 180.311 158.104 180.611 158.342C180.911 158.58 181.292 158.692 181.673 158.655C182.054 158.617 182.406 158.433 182.654 158.141Z" fill="#6C63FF"/>
<path d="M184.838 160.224L185.97 158.795C186.184 158.487 186.272 158.108 186.217 157.737C186.161 157.365 185.967 157.029 185.672 156.796C185.377 156.564 185.005 156.452 184.631 156.484C184.257 156.516 183.909 156.689 183.658 156.969L182.526 158.391C182.312 158.699 182.224 159.078 182.279 159.449C182.335 159.821 182.53 160.157 182.824 160.39C183.119 160.622 183.491 160.734 183.865 160.702C184.239 160.67 184.587 160.497 184.838 160.217V160.224Z" fill="#6C63FF"/>
<path d="M187.001 162.306L188.127 160.884C188.355 160.576 188.454 160.191 188.404 159.812C188.354 159.432 188.158 159.087 187.858 158.849C187.558 158.611 187.177 158.499 186.796 158.536C186.415 158.574 186.063 158.758 185.815 159.05L184.676 160.479C184.434 160.785 184.323 161.175 184.367 161.563C184.411 161.95 184.607 162.305 184.912 162.548C185.065 162.671 185.24 162.762 185.428 162.817C185.616 162.871 185.813 162.887 186.007 162.865C186.202 162.842 186.39 162.781 186.561 162.685C186.731 162.589 186.881 162.46 187.001 162.306Z" fill="#6C63FF"/>
<path d="M190.068 160.897C189.917 160.777 189.743 160.687 189.556 160.634C189.37 160.581 189.175 160.566 188.983 160.588C188.791 160.611 188.605 160.671 188.436 160.766C188.267 160.86 188.119 160.987 187.999 161.14L186.867 162.562C186.739 162.713 186.642 162.888 186.583 163.077C186.524 163.266 186.504 163.465 186.523 163.662C186.543 163.859 186.602 164.05 186.696 164.224C186.791 164.397 186.92 164.55 187.075 164.673C187.23 164.796 187.408 164.887 187.599 164.94C187.79 164.992 187.99 165.006 188.186 164.98C188.382 164.954 188.571 164.889 188.742 164.788C188.912 164.688 189.061 164.554 189.178 164.395L190.311 162.966C190.431 162.815 190.521 162.641 190.573 162.454C190.626 162.268 190.642 162.073 190.62 161.881C190.597 161.689 190.537 161.503 190.442 161.334C190.347 161.165 190.22 161.017 190.068 160.897Z" fill="#6C63FF"/>
<path d="M179.689 172.592H110.671V235.516H179.689V172.592Z" fill="#5A189A" stroke="#5A189A" stroke-linejoin="round"/>
<path d="M156.543 172.592H110.671V235.516H156.543V172.592Z" fill="white" stroke="#5A189A" stroke-linejoin="round"/>
<path d="M122.682 204.115H117.606V212.533H122.682V204.115Z" fill="#6C63FF"/>
<path d="M128.842 200.516H123.767V212.54H128.842V200.516Z" fill="#6C63FF"/>
<path d="M135.009 198.055H129.934V212.532H135.009V198.055Z" fill="#6C63FF"/>
<path d="M141.169 194.779H136.094V212.539H141.169V194.779Z" fill="#6C63FF"/>
<path d="M138.17 189.496L134.079 190.777L135.164 191.774L132.259 194.942L125.438 196.236L118.267 201.743C118.125 201.851 118.032 202.011 118.008 202.188C117.984 202.365 118.031 202.544 118.139 202.686C118.248 202.827 118.409 202.919 118.585 202.942C118.762 202.965 118.941 202.916 119.082 202.808L126.038 197.483L132.98 196.135L136.188 192.644L137.274 193.641L138.17 189.496Z" fill="#6C63FF"/>
<path d="M221.51 220.357H152.493V283.282H221.51V220.357Z" fill="#5A189A" stroke="#5A189A" stroke-linejoin="round"/>
<path d="M198.365 220.357H152.493V283.282H198.365V220.357Z" fill="white" stroke="#5A189A" stroke-linejoin="round"/>
<path d="M182.829 242.566L178.61 239.783V238.987C179.504 237.8 180.001 236.362 180.032 234.876C180.032 231.23 178.543 230.832 176.696 230.832C174.849 230.832 173.36 231.627 173.36 234.876C173.395 236.394 173.915 237.86 174.843 239.062V239.527L170.219 242.566C169.831 242.821 169.513 243.168 169.293 243.577C169.073 243.985 168.958 244.441 168.958 244.905V245.903L176.305 249.124L184.11 245.903V244.905C184.108 244.44 183.99 243.982 183.766 243.573C183.543 243.165 183.221 242.819 182.829 242.566Z" fill="#6C63FF"/>
<path d="M187.459 238.461C187.464 236.368 186.867 234.317 185.739 232.553C184.612 230.789 183.001 229.386 181.099 228.511C179.197 227.636 177.083 227.326 175.01 227.619C172.937 227.911 170.991 228.792 169.405 230.158C167.818 231.525 166.658 233.318 166.061 235.325C165.465 237.332 165.457 239.468 166.04 241.479C166.623 243.49 167.771 245.291 169.349 246.668C170.926 248.045 172.865 248.939 174.937 249.245V257.866C174.625 258.082 174.371 258.37 174.195 258.706C174.019 259.041 173.926 259.415 173.926 259.793V274.419C173.926 275.045 174.174 275.645 174.616 276.087C175.059 276.53 175.659 276.778 176.285 276.778C176.91 276.778 177.51 276.53 177.953 276.087C178.395 275.645 178.644 275.045 178.644 274.419V259.793C178.644 259.414 178.553 259.04 178.377 258.704C178.201 258.369 177.945 258.081 177.633 257.866V249.333C180.325 249.058 182.82 247.794 184.636 245.786C186.451 243.778 187.457 241.168 187.459 238.461ZM167.63 238.461C167.629 236.7 168.15 234.978 169.128 233.513C170.105 232.048 171.495 230.906 173.122 230.231C174.749 229.556 176.539 229.379 178.267 229.721C179.994 230.064 181.581 230.912 182.827 232.157C184.073 233.401 184.922 234.988 185.266 236.715C185.61 238.442 185.434 240.233 184.76 241.86C184.087 243.488 182.945 244.879 181.481 245.857C180.017 246.836 178.295 247.358 176.534 247.358C174.175 247.355 171.913 246.416 170.244 244.749C168.576 243.081 167.636 240.82 167.63 238.461Z" fill="#6C63FF"/>
<path d="M138.891 265.758H69.8735V328.682H138.891V265.758Z" fill="#5A189A" stroke="#5A189A" stroke-linejoin="round"/>
<path d="M115.746 265.758H69.8735V328.682H115.746V265.758Z" fill="white" stroke="#5A189A" stroke-linejoin="round"/>
<path d="M108.858 304.4C108.857 303.935 108.741 303.477 108.52 303.067C108.299 302.658 107.98 302.31 107.591 302.054L103.351 299.257V298.462C104.247 297.275 104.747 295.837 104.78 294.351C104.78 290.711 103.284 290.307 101.41 290.307C99.5365 290.307 98.0739 291.102 98.0739 294.351C98.1039 295.869 98.6241 297.337 99.5567 298.536V299.008L94.9331 302.041C94.5442 302.296 94.2249 302.644 94.0037 303.054C93.7826 303.463 93.6665 303.921 93.6659 304.386V306.934C93.2707 306.858 92.8686 306.824 92.4662 306.833C92.1198 306.828 91.7739 306.862 91.435 306.934V304.386C91.4345 303.921 91.3184 303.463 91.0972 303.054C90.8761 302.644 90.5567 302.296 90.1679 302.041L85.9621 299.257V298.462C86.8577 297.275 87.3575 295.837 87.391 294.351C87.391 291.553 86.5081 290.664 85.2544 290.401L87.418 287.934H91.0913L92.0753 302.027H92.5134L93.9288 287.927H98.9164L100.81 290.111L100.682 287.927H103.122V269.514H82.491V287.948H85.4971L85.2207 290.408C84.8357 290.341 84.4454 290.309 84.0547 290.313C82.2079 290.313 80.7184 291.109 80.7184 294.357C80.7474 295.893 81.2776 297.377 82.2282 298.583V299.055L77.6045 302.088C77.2157 302.344 76.8963 302.692 76.6752 303.101C76.454 303.51 76.338 303.968 76.3374 304.434V308.693H89.5276C89.2821 309.406 89.1679 310.157 89.1906 310.911C89.223 312.429 89.7429 313.896 90.6734 315.096V315.561L86.0497 318.601C85.6606 318.855 85.3408 319.201 85.1196 319.61C84.8983 320.018 84.7825 320.475 84.7826 320.94V325.22H99.9409V320.94C99.941 320.475 99.8252 320.018 99.6039 319.61C99.3827 319.201 99.0629 318.855 98.6738 318.601L94.4343 315.817V315.022C95.3299 313.835 95.8297 312.397 95.8632 310.911C95.8836 310.162 95.7905 309.414 95.5868 308.693H108.885L108.858 304.4ZM82.9359 287.503V269.979H102.691V287.503H100.217L100.291 288.851L99.1186 287.503H93.5244L92.3382 299.412L91.5091 287.503H87.2158L85.8138 289.147L85.9891 287.536L82.9359 287.503Z" fill="#6C63FF"/>
<path d="M90.4775 284.18H95.0068V283.492H90.4843L90.4775 284.18Z" fill="#6C63FF"/>
<path d="M90.7876 285.386H94.6968C94.8952 285.179 95.0063 284.904 95.0068 284.617H90.4775C90.4781 284.904 90.5891 285.179 90.7876 285.386Z" fill="#6C63FF"/>
<path d="M92.1626 286.855H93.3084C93.4559 286.856 93.6021 286.828 93.7386 286.772C93.8752 286.716 93.9993 286.634 94.1039 286.53C94.2085 286.426 94.2915 286.302 94.3482 286.166C94.4048 286.03 94.434 285.884 94.434 285.736H91.064C91.0622 286.03 91.1767 286.313 91.3826 286.522C91.5884 286.732 91.8688 286.852 92.1626 286.855Z" fill="#6C63FF"/>
<path d="M89.8173 280.055C90.4847 280.86 90.8495 281.873 90.8485 282.919V283.128H94.6499V282.919C94.649 281.872 95.0165 280.858 95.6878 280.055C96.2665 279.368 96.584 278.499 96.5843 277.601C96.5846 277.077 96.4771 276.558 96.2684 276.078C96.0597 275.597 95.7543 275.164 95.3712 274.806C94.9881 274.448 94.5355 274.173 94.0415 273.998C93.5476 273.822 93.0228 273.75 92.4998 273.786C91.795 273.832 91.1166 274.072 90.5396 274.479C89.9626 274.886 89.5095 275.445 89.2304 276.094C88.9514 276.743 88.8573 277.456 88.9584 278.155C89.0596 278.854 89.3522 279.512 89.8038 280.055H89.8173Z" fill="#6C63FF"/>
<path d="M97.1772 277.628C97.1772 277.724 97.2156 277.817 97.2839 277.885C97.3521 277.953 97.4447 277.992 97.5412 277.992H99.4621C99.5586 277.992 99.6512 277.953 99.7195 277.885C99.7877 277.817 99.8261 277.724 99.8261 277.628C99.8261 277.531 99.7877 277.439 99.7195 277.37C99.6512 277.302 99.5586 277.264 99.4621 277.264H97.5412C97.4447 277.264 97.3521 277.302 97.2839 277.37C97.2156 277.439 97.1772 277.531 97.1772 277.628Z" fill="#6C63FF"/>
<path d="M88.1861 277.628C88.1861 277.531 88.1478 277.439 88.0795 277.37C88.0113 277.302 87.9187 277.264 87.8222 277.264H85.8811C85.7845 277.264 85.6919 277.302 85.6237 277.37C85.5554 277.439 85.5171 277.531 85.5171 277.628C85.5171 277.724 85.5554 277.817 85.6237 277.885C85.6919 277.953 85.7845 277.992 85.8811 277.992H87.8222C87.9187 277.992 88.0113 277.953 88.0795 277.885C88.1478 277.817 88.1861 277.724 88.1861 277.628Z" fill="#6C63FF"/>
<path d="M92.6815 273.126C92.7781 273.126 92.8706 273.088 92.9389 273.02C93.0071 272.951 93.0455 272.859 93.0455 272.762V270.835C93.0464 270.787 93.0378 270.74 93.0203 270.696C93.0027 270.652 92.9765 270.612 92.9433 270.578C92.91 270.544 92.8703 270.517 92.8265 270.499C92.7828 270.48 92.7358 270.471 92.6883 270.471C92.5929 270.472 92.5021 270.512 92.4353 270.58C92.3685 270.648 92.331 270.739 92.3311 270.835V272.756C92.3309 272.85 92.3672 272.942 92.4324 273.011C92.4976 273.08 92.5868 273.121 92.6815 273.126Z" fill="#6C63FF"/>
<path d="M96.1529 274.514C96.249 274.512 96.3409 274.473 96.409 274.406L97.757 273.058C97.7913 273.024 97.8185 272.985 97.8371 272.941C97.8556 272.897 97.8652 272.849 97.8652 272.802C97.8652 272.754 97.8556 272.707 97.8371 272.663C97.8185 272.619 97.7913 272.579 97.757 272.545C97.6877 272.478 97.5946 272.439 97.4975 272.439C97.4005 272.439 97.3073 272.478 97.238 272.545L95.89 273.893C95.8225 273.962 95.7847 274.054 95.7847 274.15C95.7847 274.245 95.8225 274.338 95.89 274.406C95.9614 274.473 96.055 274.511 96.1529 274.514Z" fill="#6C63FF"/>
<path d="M88.968 280.829L87.62 282.177C87.5525 282.245 87.5146 282.337 87.5146 282.433C87.5146 282.529 87.5525 282.621 87.62 282.689C87.6533 282.723 87.6931 282.75 87.7371 282.769C87.7811 282.788 87.8284 282.797 87.8761 282.797C87.9239 282.797 87.9712 282.788 88.0152 282.769C88.0591 282.75 88.099 282.723 88.1322 282.689L89.4802 281.341C89.5376 281.271 89.5669 281.182 89.5624 281.092C89.558 281.002 89.5202 280.917 89.4563 280.853C89.3924 280.789 89.307 280.751 89.2168 280.747C89.1265 280.742 89.0379 280.771 88.968 280.829Z" fill="#6C63FF"/>
<path d="M88.9005 274.366C88.9348 274.401 88.9758 274.428 89.0209 274.447C89.0661 274.465 89.1145 274.475 89.1633 274.474C89.235 274.474 89.3048 274.452 89.3642 274.412C89.4236 274.372 89.4699 274.315 89.4973 274.249C89.5246 274.183 89.5318 274.11 89.518 274.04C89.5041 273.97 89.4699 273.905 89.4195 273.854L88.1321 272.567C88.0999 272.527 88.0598 272.495 88.0144 272.472C87.969 272.45 87.9194 272.437 87.8686 272.434C87.8179 272.432 87.7672 272.44 87.7198 272.458C87.6724 272.476 87.6293 272.504 87.5934 272.54C87.5575 272.576 87.5295 272.619 87.5112 272.667C87.4929 272.714 87.4848 272.765 87.4873 272.815C87.4897 272.866 87.5028 272.916 87.5257 272.961C87.5485 273.007 87.5806 273.047 87.6199 273.079L88.9005 274.366Z" fill="#6C63FF"/>
<path d="M96.4427 280.889C96.3734 280.821 96.2803 280.783 96.1832 280.783C96.0862 280.783 95.993 280.821 95.9237 280.889C95.8562 280.957 95.8184 281.049 95.8184 281.145C95.8184 281.241 95.8562 281.333 95.9237 281.401L97.2043 282.682C97.2376 282.716 97.2774 282.743 97.3214 282.762C97.3654 282.781 97.4127 282.79 97.4605 282.79C97.5082 282.79 97.5555 282.781 97.5995 282.762C97.6435 282.743 97.6833 282.716 97.7166 282.682C97.7841 282.614 97.8219 282.522 97.8219 282.426C97.8219 282.33 97.7841 282.238 97.7166 282.17L96.4427 280.889Z" fill="#6C63FF"/>
<path d="M120.134 123.974C120.134 123.974 122.338 126.501 122.007 127.384C121.782 128.247 121.671 129.135 121.677 130.026C121.677 130.026 124.535 131.57 124.535 132.338C124.43 133.068 124.202 133.774 123.861 134.428C123.861 134.428 124.535 138.829 124.083 139.927C123.632 141.026 118.907 141.801 118.907 141.801L117.148 147.193L107.038 144.113L108.689 138.721C108.689 138.721 106.162 132.338 105.717 130.249C105.272 128.159 108.467 124.082 112.457 123.091C115.044 122.56 117.734 122.869 120.134 123.974Z" fill="white" stroke="#5A189A" stroke-linejoin="round"/>
<path d="M116.723 133.99C116.723 133.99 118.482 134.098 118.267 133.215C118.051 132.332 117.384 131.867 117.714 131.456C118.044 131.045 120.134 129.697 119.473 128.814C118.813 127.931 116.831 127.277 117.714 126.287C118.597 125.296 123.659 123.092 123.659 123.092C123.659 123.092 118.482 120.672 117.714 120.672C116.946 120.672 120.794 119.466 119.473 118.475C118.152 117.484 109.68 117.484 106.27 121.993C102.859 126.502 103.297 129.144 104.618 132.885C105.939 136.626 108.467 141.034 109.788 141.364C111.109 141.694 115.51 141.91 115.733 140.373C115.955 138.836 116.723 133.99 116.723 133.99Z" fill="#5A189A" stroke="#5A189A" stroke-linejoin="round"/>
<path d="M118.152 134.981C118.152 134.981 115.038 131.133 114.849 132.602C114.661 134.071 115.766 139.342 117.781 138.095" fill="white"/>
<path d="M118.152 134.981C118.152 134.981 115.038 131.133 114.849 132.602C114.661 134.071 115.766 139.342 117.781 138.095" stroke="#5A189A" stroke-linejoin="round"/>
<path d="M100.877 146.204C100.877 146.204 103.297 146.972 109.127 148.186C114.957 149.399 119.911 150.605 119.911 150.605C119.911 150.605 118.374 145.982 116.723 145.105C115.072 144.229 106.269 142.463 105.171 142.571C104.072 142.679 100.877 146.204 100.877 146.204Z" fill="white" stroke="#5A189A" stroke-linejoin="round"/>
<path d="M138.17 176.904C138.17 176.904 148.186 167.886 148.732 167.333C149.278 166.781 148.058 162.494 148.058 161.834C148.058 161.173 150.37 160.068 150.37 160.068C150.37 160.068 150.7 158.309 151.798 158.309C152.897 158.309 154.771 159.737 154.771 159.737L154.993 160.951C154.993 160.951 156.53 164.361 156.53 164.914C156.377 166.084 155.836 167.168 154.993 167.994C153.895 169.093 151.36 171.404 151.36 171.404C151.36 171.404 142.558 183.287 140.576 184.938C138.595 186.59 135.953 188.349 134.962 186.374C133.971 184.399 138.17 176.904 138.17 176.904Z" fill="white" stroke="#5A189A" stroke-linejoin="round"/>
<path d="M150.396 160.068L150.727 160.951L149.844 161.612" stroke="#5A189A" stroke-linejoin="round"/>
<path d="M74.9082 164.031C74.9082 164.031 71.053 167.994 71.2754 169.646C71.4978 171.297 80.4081 189.67 80.4081 189.67C80.4081 189.67 81.0821 192.427 81.5067 192.643C81.9313 192.858 82.9356 194.516 82.9356 194.516C82.9356 194.516 82.9356 195.945 84.5869 194.402C86.2382 192.858 88.55 191.106 88.4422 189.684C88.313 188.735 87.8886 187.85 87.229 187.156C87.229 187.156 86.683 185.808 86.1303 185.727C85.5777 185.646 83.0502 185.613 83.0502 185.613L80.2059 170.636L74.9082 164.031Z" fill="white" stroke="#5A189A" stroke-linejoin="round"/>
<path d="M83.9263 188.241L85.3619 189.01C85.3619 189.01 83.596 191.652 84.2565 192.204C84.9171 192.757 86.8986 188.794 87.121 188.241C87.3434 187.689 86.7908 187.143 86.7908 187.143" fill="white"/>
<path d="M83.9263 188.241L85.3619 189.01C85.3619 189.01 83.596 191.652 84.2565 192.204C84.9171 192.757 86.8986 188.794 87.121 188.241C87.3434 187.689 86.7908 187.143 86.7908 187.143" stroke="#5A189A" stroke-linejoin="round"/>
<path d="M84.8093 189.23L81.9448 191.765" stroke="#5A189A" stroke-linejoin="round"/>
<path d="M89.5073 244.734L82.3696 250.922C82.6427 251.644 83.1445 252.257 83.7985 252.667C84.7489 253.146 88.8737 257.116 90.1409 257.904C92.4251 259.356 95.0528 260.177 97.757 260.284C101.127 260.284 101.727 259.016 101.727 258.538C101.727 258.059 95.2228 253.779 95.2228 253.779L93.7939 248.071L89.5073 244.734Z" fill="white" stroke="#5A189A" stroke-linejoin="round"/>
<path d="M83.8052 249.682L82.3696 250.922C82.6427 251.644 83.1445 252.257 83.7985 252.667C84.7489 253.146 88.8737 257.116 90.1409 257.904C92.4251 259.356 95.0528 260.177 97.757 260.284C99.7116 260.284 100.729 259.852 101.248 259.394C99.8096 259.05 98.3476 258.811 96.8741 258.68C94.6903 258.68 92.2842 256.718 92.2842 256.718L83.8052 249.682Z" fill="white" stroke="#5A189A" stroke-linejoin="round"/>
<path d="M87.229 182.957C87.229 182.957 85.6788 191.045 87.074 193.599C88.1938 195.537 89.4365 197.401 90.7945 199.18L110.57 224.536L89.1701 245.241L94.1106 250.29C94.1106 250.29 121.071 228.048 122.668 227.097C124.265 226.147 122.668 218.254 122.203 217.56C121.738 216.866 112.443 196.531 112.443 196.531L113.313 187.473L87.229 182.957Z" fill="#5A189A" stroke="#5A189A" stroke-linejoin="round"/>
<path d="M101.572 255.735C101.572 255.735 106.377 261.087 107.146 261.633C107.914 262.179 113.367 265.347 113.367 265.347C113.367 265.347 113.259 266.108 112.821 266.223C112.383 266.337 101.572 266.438 100.81 266.331C100.049 266.223 93.6861 262.86 92.9447 262.502C91.8545 261.906 90.797 261.251 89.7769 260.541L94.5825 252.783L101.572 255.735Z" fill="white" stroke="#5A189A" stroke-linejoin="round"/>
<path d="M93.4365 197.481L98.0197 200.763L104.578 222.223L93.4365 253.686L103.129 256.382L103.755 252.863L105.683 249.17C105.683 249.17 117.519 223.207 117.68 221.077C117.842 218.948 112.443 196.503 112.443 196.503L111.459 187L94.4138 185.355" fill="#5A189A"/>
<path d="M93.4365 197.481L98.0197 200.763L104.578 222.223L93.4365 253.686L103.129 256.382L103.755 252.863L105.683 249.17C105.683 249.17 117.519 223.207 117.68 221.077C117.842 218.948 112.443 196.503 112.443 196.503L111.459 187L94.4138 185.355" stroke="#5A189A" stroke-linejoin="round"/>
<path d="M112.821 266.229C113.259 266.115 113.367 265.353 113.367 265.353L112.403 264.787C108.244 264.47 101.269 263.931 100.81 263.931C100.352 263.931 93.5513 259.954 91.0642 258.465L89.7769 260.548C90.797 261.257 91.8545 261.912 92.9447 262.509C93.7063 262.839 100.042 266.229 100.81 266.337C101.579 266.445 112.383 266.33 112.821 266.229Z" fill="white" stroke="#5A189A" stroke-linejoin="round"/>
<path d="M102.307 145.873C102.307 145.873 91.4147 146.972 91.3001 147.417C91.1855 147.861 76.7754 163.478 76.7754 163.478L80.6307 170.851L89.8712 166.895L87.2291 182.957C87.2291 182.957 85.47 183.631 88.658 185.268C91.846 186.906 99.2263 189.009 104.288 189.009C109.35 189.009 112.208 189.009 113.313 187.472C114.031 186.522 114.417 185.361 114.412 184.17C114.519 183.287 119.696 169.861 119.696 169.861C119.696 169.861 131.248 184.689 131.686 185.053C132.124 185.417 134.22 185.727 135.98 183.617C137.739 181.507 137.408 176.688 137.408 176.688C137.408 176.688 130.918 164.914 130.588 163.262C130.257 161.611 129.24 156.522 128.606 155.228C127.972 153.934 127.069 153.799 125.303 152.916C123.538 152.033 118.705 150.389 118.705 150.389L102.307 145.873Z" fill="white" stroke="#5A189A" stroke-linejoin="round"/>
<path d="M92.4053 150.719L89.8711 166.895L90.9697 151.595" stroke="#5A189A" stroke-linejoin="round"/>
<path d="M89.5409 166.45L86.6831 159.406" stroke="#5A189A" stroke-linejoin="round"/>
<path d="M82.4368 162.413L80.7383 161.389" stroke="#5A189A" stroke-linejoin="round"/>
<path d="M89.8712 166.896L83.8726 163.283" stroke="#5A189A" stroke-linejoin="round"/>
<path d="M124.845 161.853L127.615 157.539" stroke="#5A189A" stroke-linejoin="round"/>
<path d="M119.695 169.86L123.968 163.215" stroke="#5A189A" stroke-linejoin="round"/>
<path d="M128.026 164.563L129.267 163.809" stroke="#5A189A" stroke-linejoin="round"/>
<path d="M120.356 169.207L126.523 165.473" stroke="#5A189A" stroke-linejoin="round"/>
<path d="M119.803 169.092L130.587 167.225" stroke="#5A189A" stroke-linejoin="round"/>
<path d="M88.6577 183.402L99.4485 180.76" stroke="#5A189A" stroke-linejoin="round"/>
<path d="M106.802 177.085C107.497 176.815 108.172 176.497 108.824 176.135" stroke="#5A189A" stroke-linejoin="round"/>
<path d="M93.1738 180.759C97.2226 179.99 101.22 178.973 105.144 177.713" stroke="#5A189A" stroke-linejoin="round"/>
<path d="M137.3 175.914C137.079 177.701 136.265 179.362 134.989 180.632C133.733 181.986 132.082 182.908 130.271 183.267C130.271 183.267 131.261 187.015 132.474 187.015C133.688 187.015 135.777 187.689 137.644 185.141C139.511 182.593 139.956 178.32 139.403 177.215C138.851 176.11 138.514 175.584 137.3 175.914Z" fill="white" stroke="#5A189A" stroke-linejoin="round"/>
<path d="M78.4266 160.951C78.4266 160.951 83.7107 170.852 83.2659 171.061C82.8211 171.27 80.9608 172.935 80.3003 173.043C79.6398 173.151 76.6674 170.178 75.5823 167.651C74.4972 165.123 74.1534 164.126 74.4837 163.688C74.8139 163.25 77.7661 160.951 78.4266 160.951Z" fill="white" stroke="#5A189A" stroke-linejoin="round"/>
<path d="M319.091 108.576C319.685 105.206 320.54 96.8818 315.465 92.7906C309.029 87.6008 304.459 96.9424 298.851 89.6767C293.243 82.411 291.585 66.6259 274.992 66.8281C258.398 67.0303 257.131 76.3854 257.131 79.4993C257.131 82.6132 252.15 84.8913 251.112 84.8913C250.074 84.8913 244.257 82.1953 242.181 88.2141C240.105 94.2329 241.507 97.7175 238.211 97.8456C234.916 97.9736 230.797 93.4713 226.322 95.7225C221.847 97.9736 221.826 102.752 219.959 104.41C218.092 106.068 214.972 103.17 210.82 104.828C208.306 105.832 207.544 107.45 207.335 108.569L319.091 108.576Z" fill="white" stroke="black" stroke-miterlimit="10"/>
<path d="M137.273 43.4465C137.631 41.4244 138.143 36.3762 135.076 33.9026C131.187 30.7618 128.424 36.4099 125.027 32.0154C121.63 27.6209 120.646 18.0771 110.583 18.1984C100.52 18.3197 99.7989 23.9746 99.7989 25.8618C99.7989 27.749 96.7794 29.1307 96.1526 29.1307C95.5257 29.1307 92.0075 27.4929 90.7606 31.1527C89.5137 34.8125 90.3562 36.9019 88.3611 36.9761C86.3661 37.0502 83.8858 34.334 81.1695 35.6954C78.4533 37.0569 78.4735 39.9417 77.321 40.9459C76.1685 41.9502 74.3082 40.191 71.7942 41.202C71.2738 41.3573 70.8042 41.6483 70.4334 42.0451C70.0627 42.4419 69.8042 42.9302 69.6846 43.4599L137.273 43.4465Z" fill="white" stroke="black" stroke-miterlimit="10"/>
<path d="M83.9128 70.4063C84.1285 69.1864 84.4385 66.1669 82.5648 64.6841C80.2327 62.7969 78.5747 66.1871 76.5392 63.5518C74.5037 60.9164 73.9376 55.1942 67.912 55.2683C61.8865 55.3424 61.4349 58.7327 61.4349 59.865C61.4349 60.9973 59.6286 61.8196 59.2511 61.8196C58.8737 61.8196 56.7708 60.8423 56.0159 63.026C55.261 65.2098 55.7733 66.4702 54.5736 66.5174C53.3738 66.5645 51.8776 64.9335 50.26 65.749C48.6424 66.5645 48.6356 68.2967 47.9549 68.9033C47.2741 69.5099 46.1486 68.445 44.6455 69.0516C44.3334 69.1431 44.0514 69.3163 43.8287 69.5533C43.6059 69.7903 43.4505 70.0824 43.3784 70.3996L83.9128 70.4063Z" fill="white" stroke="black" stroke-miterlimit="10"/>
<path d="M296.223 187.682C296.439 186.462 296.749 183.442 294.909 181.959C292.576 180.072 290.918 183.462 288.883 180.827C286.847 178.192 286.248 172.47 280.222 172.544C274.197 172.618 273.745 176.008 273.745 177.14C273.745 178.273 271.939 179.095 271.561 179.095C271.184 179.095 269.081 178.118 268.326 180.301C267.571 182.485 268.083 183.746 266.884 183.793C265.684 183.84 264.188 182.209 262.57 183.024C260.952 183.84 260.946 185.572 260.265 186.179C259.584 186.785 258.459 185.72 256.956 186.327C256.644 186.419 256.362 186.592 256.139 186.829C255.916 187.066 255.761 187.358 255.688 187.675L296.223 187.682Z" fill="white" stroke="black" stroke-miterlimit="10"/>
<path d="M277.256 74.5518C277.445 73.4869 277.715 70.8515 276.111 69.5575C274.089 67.9129 272.626 70.9055 270.847 68.5667C269.067 66.2279 268.548 61.2673 263.284 61.3347C258.02 61.4021 257.63 64.3609 257.63 65.3787C257.63 66.3964 256.052 67.0906 255.722 67.0906C255.392 67.0906 253.552 66.2346 252.898 68.1421C252.244 70.0495 252.682 71.1548 251.638 71.1953C250.593 71.2357 249.299 69.8068 247.877 70.5213C246.455 71.2357 246.455 72.7455 245.855 73.2712C245.255 73.7969 244.278 72.8803 242.957 73.406C242.685 73.4863 242.439 73.6381 242.246 73.8456C242.053 74.053 241.919 74.3086 241.858 74.5855L277.256 74.5518Z" fill="white" stroke="black" stroke-miterlimit="10"/>
</svg>
