<svg width="147" height="171" viewBox="0 0 147 171" fill="none" xmlns="http://www.w3.org/2000/svg">
<g clip-path="url(#clip0_2338_3234)">
<path d="M8.7959 147.627C8.7959 147.627 24.0813 158.649 28.63 158.649L31.8791 157.349L35.6128 157.57L36.4811 160.221L42.2763 161.25L40.3268 163.2L46.8251 164.825L50.724 162.225L52.0237 163.85L56.5724 162.225L57.6607 164.825L63.0706 162.875L66.6447 164.175C66.6447 164.175 67.2945 168.076 70.5436 168.401C73.7927 168.726 78.3415 171.001 78.3415 171.001L88.4835 166.661L89.7134 164.5L93.2874 165.475L102.71 160.275C102.71 160.275 102.501 160.303 100.006 159.314C97.5112 158.324 97.1863 157.024 97.1863 157.024L95.4175 157.57C95.4175 157.57 92.6321 156.798 94.5843 153.498C96.5365 150.198 95.0009 150.657 95.0009 150.657L91.9877 151.498L90.3632 148.898C90.3632 148.898 87.1141 149.873 86.4643 150.198C85.8144 150.523 87.439 148.573 87.439 148.573L86.1393 147.923L86.4643 146.298C86.4643 146.298 85.4895 145.648 86.7892 144.347C88.0888 143.047 85.8144 141.747 85.8144 141.747C85.8144 141.747 79.8678 143.663 82.0288 140.43C84.1899 137.196 82.3046 135.897 82.3046 135.897L67.8839 131.346L66.3198 133.621C66.3198 133.621 61.1744 132.226 62.7723 136.499C62.7723 136.499 59.23 136.79 60.5005 138.781C60.5005 138.781 56.2475 138.244 57.2222 140.808L53.7797 139.851C53.7797 139.851 51.1506 139.065 53.2117 138.781C55.2728 138.497 52.4544 137.684 52.4544 137.684C52.4544 137.684 53.3764 134.109 50.7505 135.165C48.1247 136.221 45.9054 137.684 45.9054 137.684L8.7959 147.627Z" fill="#B3B3B3"/>
<path d="M9.77051 146.326C9.77051 146.326 25.0559 157.349 29.6046 157.349L32.8537 156.048L36.5874 156.269L37.4557 158.921L43.2509 159.949L41.3014 161.899L47.7997 163.524L51.6986 160.924L52.9983 162.549L57.547 160.924L58.6353 163.524L64.0452 161.574L67.6193 162.874C67.6193 162.874 68.2691 166.775 71.5182 167.1C74.7673 167.425 79.3161 169.7 79.3161 169.7L89.4581 165.36L90.688 163.199L94.262 164.174L103.684 158.974C103.684 158.974 103.475 159.003 100.981 158.013C98.4858 157.023 98.1609 155.723 98.1609 155.723L96.3921 156.269C96.3921 156.269 93.6067 155.497 95.5589 152.197C97.5111 148.897 95.9755 149.356 95.9755 149.356L92.9623 150.198L91.3378 147.597C91.3378 147.597 88.0887 148.572 87.4389 148.897C86.789 149.222 88.4136 147.272 88.4136 147.272L87.114 146.622L87.4389 144.997C87.4389 144.997 86.4641 144.347 87.7638 143.047C89.0634 141.746 86.789 140.446 86.789 140.446C86.789 140.446 80.8424 142.362 83.0034 139.129C85.1645 135.896 83.2792 134.597 83.2792 134.597L68.8586 130.045L67.2944 132.32C67.2944 132.32 62.149 130.925 63.7469 135.198C63.7469 135.198 60.2046 135.489 61.4751 137.48C61.4751 137.48 57.2221 136.944 58.1968 139.508L54.7543 138.55C54.7543 138.55 52.1252 137.765 54.1863 137.48C56.2474 137.196 53.429 136.383 53.429 136.383C53.429 136.383 54.351 132.808 51.7251 133.864C49.0993 134.921 46.8801 136.383 46.8801 136.383L9.77051 146.326Z" fill="#D6D6E3"/>
<path d="M118.955 109.566C118.955 109.566 131.302 106.641 130.002 94.6145L132.276 95.2646V90.7305C132.276 90.7305 136.799 98.19 136.812 101.115C136.825 104.041 138.774 125.169 115.381 121.268L118.955 109.566Z" fill="#6C63FF"/>
<path d="M52.3486 8.80286L49.2619 8.96538H44.3493C44.3493 8.96538 40.8414 8.15277 39.6094 8.80286L41.3016 9.77799C41.3016 9.77799 38.3774 10.103 37.4026 11.4032H40.1218C40.1218 11.4032 36.4279 12.3783 35.7781 14.9787C35.1283 17.579 28.63 23.4298 28.63 23.4298C28.63 23.4298 15.3087 34.1562 31.5542 48.7831C31.5542 48.7831 33.5037 54.959 32.8539 55.9341C32.2041 56.9092 40.9767 58.2094 41.9514 51.3835C42.9261 44.5576 44.8756 30.2557 44.8756 28.6305C44.8756 27.0053 49.0995 16.9289 49.0995 16.9289" fill="#6C63FF"/>
<path d="M91.9873 8.80286L95.074 8.96538H99.9866C99.9866 8.96538 103.495 8.15277 104.727 8.80286L103.034 9.77799C103.034 9.77799 105.959 10.103 106.933 11.4032H104.214C104.214 11.4032 107.908 12.3783 108.558 14.9787C109.208 17.579 115.706 23.4298 115.706 23.4298C115.706 23.4298 129.027 34.1562 112.782 48.7831C112.782 48.7831 110.832 54.959 111.482 55.9341C112.132 56.9092 103.359 58.2094 102.384 51.3835C101.41 44.5576 99.4603 30.2557 99.4603 28.6305C99.4603 27.0053 95.2364 16.9289 95.2364 16.9289" fill="#6C63FF"/>
<path d="M118.144 121.106C117.494 124.357 114.57 126.632 114.57 126.632C113.27 134.758 107.746 131.182 107.746 131.182C107.422 132.483 101.248 131.833 101.248 131.833L100.273 130.549V134.433C100.273 137.358 96.3745 136.383 96.3745 136.383C95.3998 139.309 89.4572 137.683 89.4572 137.683C87.0917 139.634 82.7283 137.683 82.7283 137.683C76.8799 137.358 76.23 132.483 76.23 132.483L77.2048 124.032L71.3595 124.155C64.8613 129.801 58.1974 124.737 58.1974 124.737C58.1974 124.737 57.0603 130.532 56.4104 133.458C55.7606 136.383 46.8969 135.564 46.8969 135.564C44.8567 137.67 40.571 135.2 40.571 135.2C37.075 136.614 34.9663 133.458 34.9663 133.458C30.0926 128.907 39.0699 121.685 39.0699 121.685V104.828C35.3756 89.8466 40.6522 62.2148 40.6522 62.2148C41.0876 60.9342 41.8868 59.9882 42.7933 59.2959C44.9151 57.661 47.6248 57.3977 47.6248 57.3977C47.6248 57.3977 91.8258 53.4972 98.324 54.1473C99.5523 54.2708 100.537 55.0769 101.323 56.3055C104.712 61.5809 104.497 74.625 104.497 74.625C110.996 77.5504 112.62 91.8523 112.62 91.8523C127.566 97.053 118.793 117.856 118.144 121.106Z" fill="#6C63FF"/>
<path d="M93.1242 7.3409C93.1242 7.3409 70.0555 -10.2114 49.2612 8.96611C49.2612 8.96611 34.8026 44.8834 40.3261 53.3345C45.8496 61.7856 62.169 68.9631 62.169 68.9631C62.169 68.9631 72.6847 71.2649 82.4983 68.9631C92.3119 66.6612 103.034 51.0592 103.034 51.0592C103.034 51.0592 103.359 10.1038 93.1242 7.3409Z" fill="#6C63FF"/>
<path d="M79.19 20.6365C80.6414 23.7582 83.5092 26.1381 86.833 27.0174C87.44 27.178 87.699 26.2376 87.0921 26.0771C83.9913 25.2568 81.383 23.0507 80.0317 20.1443C79.7674 19.5759 78.9269 20.0705 79.19 20.6365Z" fill="#090814"/>
<path d="M61.9402 20.5229C61.2774 22.2246 60.2143 23.7553 58.8717 24.9905C58.2152 25.5944 57.4875 26.1354 56.7028 26.5619C55.8717 27.0136 54.8081 27.384 53.9139 26.8965C53.3629 26.5961 52.8704 27.4377 53.422 27.7385C55.437 28.8371 57.7769 27.2308 59.2765 25.9336C60.8851 24.542 62.1095 22.7607 62.8801 20.7821C63.1079 20.1971 62.1658 19.9436 61.9402 20.5229Z" fill="#090814"/>
<path d="M87.114 41.307C90.344 41.307 92.9624 38.6875 92.9624 35.4562C92.9624 32.225 90.344 29.6055 87.114 29.6055C83.884 29.6055 81.2656 32.225 81.2656 35.4562C81.2656 38.6875 83.884 41.307 87.114 41.307Z" fill="white"/>
<path d="M86.4638 39.6832C88.976 39.6832 91.0126 37.6459 91.0126 35.1326C91.0126 32.6194 88.976 30.582 86.4638 30.582C83.9516 30.582 81.915 32.6194 81.915 35.1326C81.915 37.6459 83.9516 39.6832 86.4638 39.6832Z" fill="#090814"/>
<path d="M87.6007 33.669C88.139 33.669 88.5755 33.2324 88.5755 32.6939C88.5755 32.1553 88.139 31.7188 87.6007 31.7188C87.0624 31.7188 86.626 32.1553 86.626 32.6939C86.626 33.2324 87.0624 33.669 87.6007 33.669Z" fill="white"/>
<path d="M58.197 41.6332C61.427 41.6332 64.0454 39.0137 64.0454 35.7824C64.0454 32.5511 61.427 29.9316 58.197 29.9316C54.9671 29.9316 52.3486 32.5511 52.3486 35.7824C52.3486 39.0137 54.9671 41.6332 58.197 41.6332Z" fill="white"/>
<path d="M57.5468 40.0075C60.059 40.0075 62.0956 37.9701 62.0956 35.4569C62.0956 32.9436 60.059 30.9062 57.5468 30.9062C55.0346 30.9062 52.998 32.9436 52.998 35.4569C52.998 37.9701 55.0346 40.0075 57.5468 40.0075Z" fill="#090814"/>
<path d="M58.6837 33.9952C59.2221 33.9952 59.6585 33.5586 59.6585 33.0201C59.6585 32.4815 59.2221 32.0449 58.6837 32.0449C58.1454 32.0449 57.709 32.4815 57.709 33.0201C57.709 33.5586 58.1454 33.9952 58.6837 33.9952Z" fill="white"/>
<path d="M71.3557 57.3984C71.3557 57.3984 60.9585 54.148 63.5578 47.9721C66.1571 41.7963 74.2799 44.0716 74.2799 44.0716C74.2799 44.0716 81.2655 45.2093 79.1903 50.5302C77.6914 54.3105 75.2546 56.0982 71.3557 57.3984Z" fill="#090814"/>
<path d="M58.2331 67.3525L58.1592 66.7069C58.1906 66.7031 61.3293 66.3037 64.1282 63.1927C66.657 60.3819 69.9613 60.0987 71.0325 60.0854L71.0303 57.3971L71.6801 57.3965L71.683 60.7609L71.3378 60.7399C71.2981 60.7374 67.39 60.539 64.6111 63.6275C61.6386 66.9316 58.3705 67.337 58.2331 67.3525Z" fill="#090814"/>
<path d="M86.3676 67.6998C86.1316 67.6262 80.5681 65.8711 79.2865 63.3686C78.3435 61.5275 73.2306 60.8476 71.3398 60.7406L71.3767 60.0918C71.6692 60.1083 78.5606 60.5257 79.8646 63.0721C81.0234 65.3344 86.5053 67.0618 86.5606 67.0789L86.3676 67.6998Z" fill="#090814"/>
<path d="M58.4894 124.877L57.9043 124.594C64.2509 111.472 57.9754 99.5786 57.9113 99.4602L58.4824 99.1504C58.5484 99.272 64.9851 111.447 58.4894 124.877Z" fill="#090814"/>
<path d="M76.8797 124.05C76.3952 115.812 79.6161 101.192 79.6484 101.045L80.283 101.186C80.2507 101.332 77.0492 115.864 77.5283 124.012L76.8797 124.05Z" fill="#090814"/>
<path d="M99.8278 130.856L97.2285 126.305C94.5787 121.666 101.155 106.504 101.437 105.861L102.032 106.122C102.015 106.161 100.316 110.061 98.9565 114.463C97.1783 120.219 96.776 124.203 97.7926 125.983L100.392 130.533L99.8278 130.856Z" fill="#090814"/>
<path d="M108.064 131.246L107.427 131.118C108.217 127.167 107.735 124.114 107.73 124.084L108.371 123.979C108.392 124.107 108.878 127.172 108.064 131.246Z" fill="#090814"/>
<path d="M100.933 131.916C100.108 128.779 101.367 124.141 101.421 123.945L102.048 124.118C102.035 124.164 100.781 128.784 101.561 131.75L100.933 131.916Z" fill="#090814"/>
<path d="M83.0432 137.758L82.4111 137.608C83.2025 134.282 82.8934 129.141 82.8902 129.089L83.5388 129.049C83.5521 129.263 83.8574 134.337 83.0432 137.758Z" fill="#090814"/>
<path d="M89.7777 137.744L89.1387 137.624C89.5226 135.569 89.39 130.109 89.3884 130.054L90.0382 130.037C90.0439 130.264 90.174 135.622 89.7777 137.744Z" fill="#090814"/>
<path d="M96.6985 136.402L96.0499 136.364C96.2067 133.695 95.2605 130.827 95.251 130.798L95.8672 130.592C95.9081 130.714 96.8628 133.609 96.6985 136.402Z" fill="#090814"/>
<path d="M46.5742 135.591C46.3163 132.595 48.8299 127.971 48.9368 127.775L49.5067 128.088C49.4813 128.134 46.9804 132.735 47.2215 135.535L46.5742 135.591Z" fill="#090814"/>
<path d="M40.248 135.246C39.8295 132.522 42.2939 127.968 42.3989 127.775L42.9694 128.087C42.9447 128.132 40.5053 132.64 40.8902 135.148L40.248 135.246Z" fill="#090814"/>
<path d="M35.9399 134.888C35.2057 134.526 35.214 133.266 35.9656 130.921C36.4733 129.337 37.1526 127.814 37.1593 127.799L37.7527 128.064C36.5403 130.774 35.6153 134.003 36.2268 134.304L35.9399 134.888Z" fill="#090814"/>
<path d="M12.0626 134.189C12.0626 134.189 15.0004 137.196 19.5407 137.034C19.5407 137.034 17.5827 141.097 9.45996 142.072C9.45996 142.072 5.88593 140.121 3.61155 140.121C1.33717 140.121 -0.280896 137.196 0.0407699 137.034C0.362436 136.871 4.9112 137.521 4.9112 137.521L12.0626 134.189Z" fill="#B3B3B3"/>
<path d="M12.0626 133.539C12.0626 133.539 15.0004 136.546 19.5407 136.383C19.5407 136.383 17.5827 140.446 9.45996 141.421C9.45996 141.421 5.88593 139.471 3.61155 139.471C1.33717 139.471 -0.280896 136.546 0.0407699 136.383C0.362436 136.221 4.9112 136.871 4.9112 136.871L12.0626 133.539Z" fill="#D6D6E3"/>
<path d="M28.6299 144.997L48.0508 138.551L69.2438 145.973L49.7491 154.099L28.6299 144.997Z" fill="#B3B3B3"/>
<path d="M65.9717 137.48L67.1076 136.383L81.5905 141.421L80.9409 142.396L65.9717 137.48Z" fill="#B3B3B3"/>
<path d="M59.6406 139.39L61.0847 138.551L85.0924 146.325V147.179L59.6406 139.39Z" fill="#B3B3B3"/>
<path d="M70.8682 147.922L71.9348 147.178L91.0127 153.448L89.7369 154.469L70.8682 147.922Z" fill="#B3B3B3"/>
<path d="M65.3086 150.825L65.9712 149.873L85.0925 156.648L84.1895 157.674L65.3086 150.825Z" fill="#B3B3B3"/>
<path d="M60.7959 152.797L61.0847 151.912L79.9657 158.92L78.9909 159.298L60.7959 152.797Z" fill="#B3B3B3"/>
<path d="M58.1963 155.227L59.6403 154.098L69.2433 158.352L68.716 159.298L58.1963 155.227Z" fill="#B3B3B3"/>
<path d="M25.0557 147.597L25.9302 147.178L43.1582 153.773L42.2116 154.098L25.0557 147.597Z" fill="#B3B3B3"/>
<path d="M21.1572 148.573L23.1067 147.598L32.5291 152.473L31.5544 153.123L21.1572 148.573Z" fill="#B3B3B3"/>
<path d="M97.8956 138.983L98.4862 143.046L97.3672 145.826L100.303 147.152L102.71 150.372V152.124L108.721 153.591C108.721 153.591 112.132 158.323 114.407 157.673C116.681 157.023 134.534 144.164 134.534 144.164L101.497 137.683C101.497 137.683 97.63 136.87 97.8956 138.983Z" fill="#B3B3B3"/>
<path d="M96.92 137.682L97.5106 141.745L96.3916 144.525L99.3272 145.851L101.734 149.071V150.823L107.745 152.291C107.745 152.291 111.157 157.022 113.431 156.372C115.706 155.722 133.558 142.863 133.558 142.863L100.522 136.382C100.522 136.382 96.6544 135.57 96.92 137.682Z" fill="#D6D6E3"/>
<path d="M99.8594 142.864L100.98 141.686L116.709 146.324L116.141 147.178L99.8594 142.864Z" fill="#B3B3B3"/>
<path d="M103.685 147.746L104.119 146.332L111.807 149.222L111.408 150.638L103.685 147.746Z" fill="#B3B3B3"/>
<path d="M136.207 128.023C136.207 128.023 132.876 132.645 127.703 130.37C127.703 130.37 125.815 131.67 125.147 131.995C124.479 132.32 120.13 132.483 120.13 132.483L126.283 134.677L130.003 136.871L138.775 135.571C138.775 135.571 140.725 133.945 142.674 133.945C144.624 133.945 146.351 130.37 146.351 130.37C146.351 130.37 140.753 130.045 140.576 129.232C140.4 128.42 137.863 130.228 136.207 128.023Z" fill="#B3B3B3"/>
<path d="M135.464 156.907C135.85 158.974 144.173 155.06 144.173 155.06L140.67 153.214L139.099 152.798H136.789C136.789 152.798 134.84 151.126 132.908 152.125C132.908 152.125 135.078 154.839 135.464 156.907Z" fill="#B3B3B3"/>
<path d="M136.857 126.723C136.857 126.723 133.525 131.344 128.352 129.069C128.352 129.069 126.464 130.369 125.796 130.694C125.128 131.019 120.779 131.182 120.779 131.182L126.932 133.376L130.652 135.57L139.425 134.27C139.425 134.27 141.374 132.645 143.324 132.645C145.273 132.645 147 129.069 147 129.069C147 129.069 141.402 128.744 141.226 127.931C141.049 127.119 138.513 128.927 136.857 126.723Z" fill="#D6D6E3"/>
<path d="M136.114 155.606C136.501 157.674 144.823 153.759 144.823 153.759L141.321 151.913L139.75 151.498H137.44C137.44 151.498 135.49 149.825 133.559 150.824C133.559 150.824 135.728 153.538 136.114 155.606Z" fill="#D6D6E3"/>
<path d="M29.4951 145.194C29.4951 145.194 44.1419 143.577 46.8095 144.629L47.7453 153.059L29.4951 145.194Z" fill="white"/>
<path d="M53.7009 146.658C55.1364 146.658 56.3001 146.149 56.3001 145.52C56.3001 144.892 55.1364 144.383 53.7009 144.383C52.2653 144.383 51.1016 144.892 51.1016 145.52C51.1016 146.149 52.2653 146.658 53.7009 146.658Z" fill="white"/>
</g>
<defs>
<clipPath id="clip0_2338_3234">
<rect width="147" height="171" fill="white"/>
</clipPath>
</defs>
</svg>
