<svg width="26" height="25" viewBox="0 0 26 25" fill="none" xmlns="http://www.w3.org/2000/svg">
<g clip-path="url(#clip0_3088_2528)">
<path d="M23.4167 1.04102H10.9552V4.16602H8.83333V1.04102H6.75V4.16602H4.62812V1.04102H2.58333C2.0308 1.04102 1.5009 1.26051 1.11019 1.65121C0.719493 2.04191 0.5 2.57181 0.5 3.12435L0.5 5.20768C0.5 5.76022 0.719493 6.29012 1.11019 6.68082C1.5009 7.07152 2.0308 7.29102 2.58333 7.29102H23.4167C23.9692 7.29102 24.4991 7.07152 24.8898 6.68082C25.2805 6.29012 25.5 5.76022 25.5 5.20768V3.12435C25.5 2.57181 25.2805 2.04191 24.8898 1.65121C24.4991 1.26051 23.9692 1.04102 23.4167 1.04102Z" fill="white"/>
<path d="M23.4167 9.375H10.9552V12.5H8.83333V9.375H6.75V12.5H4.62812V9.375H2.58333C2.0308 9.375 1.5009 9.59449 1.11019 9.98519C0.719493 10.3759 0.5 10.9058 0.5 11.4583L0.5 13.5417C0.5 14.0942 0.719493 14.6241 1.11019 15.0148C1.5009 15.4055 2.0308 15.625 2.58333 15.625H23.4167C23.9692 15.625 24.4991 15.4055 24.8898 15.0148C25.2805 14.6241 25.5 14.0942 25.5 13.5417V11.4583C25.5 10.9058 25.2805 10.3759 24.8898 9.98519C24.4991 9.59449 23.9692 9.375 23.4167 9.375Z" fill="white"/>
<path d="M23.4167 17.709H10.9552V20.834H8.83333V17.709H6.75V20.834H4.62812V17.709H2.58333C2.0308 17.709 1.5009 17.9285 1.11019 18.3192C0.719493 18.7099 0.5 19.2398 0.5 19.7923L0.5 21.8757C0.5 22.4282 0.719493 22.9581 1.11019 23.3488C1.5009 23.7395 2.0308 23.959 2.58333 23.959H23.4167C23.9692 23.959 24.4991 23.7395 24.8898 23.3488C25.2805 22.9581 25.5 22.4282 25.5 21.8757V19.7923C25.5 19.2398 25.2805 18.7099 24.8898 18.3192C24.4991 17.9285 23.9692 17.709 23.4167 17.709Z" fill="white"/>
</g>
<defs>
<clipPath id="clip0_3088_2528">
<rect width="25" height="25" fill="white" transform="translate(0.5)"/>
</clipPath>
</defs>
</svg>
