<svg width="26" height="25" viewBox="0 0 26 25" fill="none" xmlns="http://www.w3.org/2000/svg">
<g clip-path="url(#clip0_3088_2599)">
<path d="M9.04896 22.1794L1.2625 14.393C0.769792 13.9003 0.5 13.2461 0.5 12.5513C0.5 11.8565 0.770833 11.2013 1.2625 10.7096L9.10104 2.87109L10.574 4.34401L2.73542 12.1836C2.60312 12.3159 2.58333 12.4711 2.58333 12.5523C2.58333 12.6336 2.60313 12.7888 2.73646 12.9211L10.5219 20.7076L9.04896 22.1805V22.1794ZM24.7375 14.393C25.2292 13.9003 25.5 13.2461 25.5 12.5513C25.5 11.8565 25.2292 11.2013 24.7375 10.7096L16.899 2.87109L15.426 4.34401L23.2646 12.1836C23.3969 12.3159 23.4167 12.4711 23.4167 12.5513C23.4167 12.6315 23.3969 12.7878 23.2646 12.9201L15.4781 20.7065L16.951 22.1794L24.7375 14.393Z" fill="white"/>
</g>
<defs>
<clipPath id="clip0_3088_2599">
<rect width="25" height="25" fill="white" transform="translate(0.5)"/>
</clipPath>
</defs>
</svg>
