<svg width="20" height="29" viewBox="0 0 20 29" fill="none" xmlns="http://www.w3.org/2000/svg">
<path d="M2.59102 17.1209C2.59102 16.3562 5.4941 15.9267 6.84487 15.8219L6.97385 15.8968C6.4545 15.9912 4.37133 16.3585 4.37133 16.8376C4.37133 17.3592 7.5669 17.7012 9.42091 17.7012C12.5704 17.7012 14.7123 17.2245 15.2881 17.0679L16.0942 17.5366C15.5426 17.8072 13.1738 18.5142 9.42091 18.5142C5.25112 18.5142 2.59102 17.6989 2.59102 17.1209ZM8.94647 27.8626C7.29628 27.8764 5.28106 27.7405 3.58597 27.4561L3.4282 27.5459C5.11754 28.0411 7.46902 28.3405 10.052 28.3175C15.1257 28.2737 19.2391 27.015 19.3197 25.5007L19.261 25.4662C18.9213 25.8819 16.7275 27.7946 8.94647 27.8626ZM9.3783 26.8872C13.5308 26.8504 18.1773 26.0385 18.1647 24.6728C18.1624 24.4252 18.0012 24.2548 17.8607 24.1534L17.7927 24.1926C17.4093 25.2509 14.1653 26.0328 9.37139 26.0742C6.27831 26.1019 1.99452 25.3603 1.98645 24.5046C1.97955 23.6456 4.01665 23.1746 4.01665 23.1746L3.87271 23.0905C2.50811 23.2782 -0.00804158 23.9323 1.93214e-05 24.8766C0.0115349 26.2412 5.79235 26.9183 9.3783 26.8872ZM18.7335 17.4859C18.6495 19.0877 17.1697 20.0861 15.69 20.9279L15.8236 21.0051C17.4023 20.5606 20.2191 19.2674 19.9864 17.2798C19.8701 16.2894 18.9639 15.5801 17.7835 15.5801C17.415 15.5801 17.088 15.6446 16.8231 15.7252L16.822 15.7275L16.7655 15.868C17.8227 15.6641 18.7877 16.4357 18.7335 17.4859ZM6.53511 22.2464C6.05375 22.342 5.00353 22.5838 5.00353 23.094C5.00353 23.801 7.25022 24.3434 9.41976 24.3434C12.4046 24.3434 13.6275 23.5753 13.6828 23.535L12.4414 22.8165C11.914 22.942 11.0239 23.1389 9.42321 23.1389C7.63599 23.1389 6.47177 22.8337 6.47177 22.4986C6.47177 22.4272 6.51668 22.3432 6.59844 22.281L6.53511 22.2464ZM13.8682 19.8616C13.1819 20.0562 11.6354 20.3729 9.42436 20.3729C7.25483 20.3729 5.48143 20.0021 5.47567 19.5645C5.47107 19.2731 5.82344 19.1465 5.82344 19.1465L5.76126 19.1108C4.7214 19.2938 3.7564 19.5783 3.76216 20.0032C3.77137 20.7748 6.72166 21.3528 9.41976 21.3528C11.7137 21.3528 13.9166 20.9682 14.9104 20.4638L13.8682 19.8616Z" fill="white"/>
<path d="M13.2762 2.65886C13.2762 6.91156 7.44928 8.53871 7.44928 11.5616C7.44928 13.6839 8.85649 15.0151 9.63609 15.8569L9.57276 15.8937C8.58933 15.2788 6.00293 13.7334 6.00293 11.1804C6.00293 7.59674 12.6969 5.88438 12.6969 1.81362C12.6969 1.31269 12.6232 0.928074 12.5703 0.721945L12.637 0.681641C12.8489 0.94765 13.2762 1.6144 13.2762 2.65886ZM15.1924 6.42446L15.1221 6.38415C13.8542 6.80908 9.95047 8.34986 9.95047 11.223C9.95047 12.8478 11.5373 13.7484 11.5373 15.2719C11.5373 15.8154 11.2298 16.3255 10.9811 16.6296L11.1066 16.7021C11.7676 16.2726 12.9365 15.3433 12.9365 14.1433C12.9365 13.1265 11.5304 11.9059 11.5304 10.5989C11.5293 8.54102 14.2435 6.92653 15.1924 6.42446Z" fill="white"/>
</svg>
