<svg width="26" height="25" viewBox="0 0 26 25" fill="none" xmlns="http://www.w3.org/2000/svg">
<g clip-path="url(#clip0_3088_1377)">
<path d="M10.6562 8.47917H10.6354L9.34375 12.8229H11.9896L10.6562 8.47917ZM10.6562 8.47917H10.6354L9.34375 12.8229H11.9896L10.6562 8.47917ZM21.0729 0.3125H4.92708C2.47917 0.3125 0.5 2.29167 0.5 4.73958V20.2604C0.5 22.7083 2.47917 24.6875 4.92708 24.6875H21.0729C23.5208 24.6875 25.5 22.7083 25.5 20.2604V4.73958C25.5 2.29167 23.5208 0.3125 21.0729 0.3125ZM15.8125 17.5312H13.6354C13.5625 17.5417 13.4896 17.4896 13.4687 17.4167L12.6146 14.9375H8.73958L7.94792 17.3854C7.92708 17.4792 7.84375 17.5417 7.75 17.5312H5.79167C5.67708 17.5312 5.64583 17.4688 5.67708 17.3438L9.03125 7.6875C9.0625 7.58333 9.09375 7.46875 9.13542 7.34375C9.17708 7.125 9.19792 6.89583 9.19792 6.66667C9.1875 6.61458 9.22917 6.5625 9.28125 6.55208H11.9792C12.0625 6.55208 12.1042 6.58333 12.1146 6.63542L15.9167 17.3646C15.9479 17.4792 15.9167 17.5312 15.8125 17.5312ZM19.3542 17.375C19.3542 17.4896 19.3125 17.5417 19.2187 17.5417H17.1771C17.0729 17.5417 17.0208 17.4792 17.0208 17.375V9.35417C17.0208 9.25 17.0625 9.20833 17.1562 9.20833H19.2187C19.3125 9.20833 19.3542 9.26042 19.3542 9.35417V17.375ZM19.1354 7.96875C18.8958 8.21875 18.5417 8.35417 18.1875 8.33333C17.8437 8.34375 17.5104 8.20833 17.2604 7.96875C17.0208 7.70833 16.8958 7.36458 16.9062 7.01042C16.8958 6.65625 17.0312 6.32292 17.2812 6.08333C17.5312 5.84375 17.8646 5.71875 18.2083 5.71875C18.6146 5.71875 18.9271 5.84375 19.1562 6.08333C19.3854 6.33333 19.5104 6.66667 19.5 7.01042C19.5104 7.36458 19.3854 7.70833 19.1354 7.96875ZM10.6354 8.47917L9.34375 12.8229H11.9896L10.6562 8.47917H10.6354Z" fill="white"/>
</g>
<defs>
<clipPath id="clip0_3088_1377">
<rect width="25" height="25" fill="white" transform="translate(0.5)"/>
</clipPath>
</defs>
</svg>
