<svg width="26" height="26" viewBox="0 0 26 26" fill="none" xmlns="http://www.w3.org/2000/svg">
<g clip-path="url(#clip0_3088_2546)">
<path d="M13.0004 10.916C10.2629 10.965 10.2629 15.0337 13.0004 15.0827C15.7379 15.0337 15.7379 10.9639 13.0004 10.916ZM13.0004 14.041C11.6389 14.0337 11.6389 11.965 13.0004 11.9577C14.3618 11.965 14.3618 14.0337 13.0004 14.041Z" fill="white"/>
<path d="M25.5005 13C25.5005 11.2625 23.8921 9.68331 21.0952 8.61768C22.4338 2.01872 18.2077 -0.670861 13.0005 3.69164C7.79316 -0.673986 3.56816 2.02081 4.90566 8.61768C-0.923503 10.7177 -0.922461 15.2833 4.90566 17.3823C3.50775 24.2948 8.14733 26.4885 13.0005 22.3156C17.8557 26.4916 22.4921 24.2906 21.0952 17.3823C23.8932 16.3166 25.5005 14.7385 25.5005 13ZM18.9775 2.90206C21.0057 3.87289 20.2734 9.16872 19.1515 11.6916C18.4817 10.3479 17.6025 8.86247 16.7223 7.68122C15.8505 6.48122 14.8807 5.3781 13.8036 4.36872C15.8921 2.72289 17.8025 2.17393 18.9775 2.90206ZM18.0192 14.2375C17.4494 15.3562 16.7505 16.4927 16.014 17.5135C14.0119 17.7375 11.989 17.7375 9.98691 17.5135C8.97546 16.1166 8.09004 14.5729 7.39837 13C8.09004 11.426 8.9765 9.88435 9.98691 8.48643C11.988 8.26039 14.013 8.26039 16.014 8.48643C17.0244 9.88435 17.9109 11.426 18.6025 13C18.4223 13.4073 18.215 13.8271 18.0182 14.2375H18.0192ZM7.02441 2.90101C9.76296 1.56143 13.2567 5.07497 15.1588 7.35414C12.0609 7.14268 8.85671 7.35518 5.889 8.26456C5.43483 5.61039 5.84733 3.62601 7.02441 2.90101ZM1.54212 13C1.34733 10.8677 6.06296 9.00414 8.57754 8.68747C6.99108 11.0896 5.81816 13.6323 5.11504 16.3583C2.86608 15.4708 1.54212 14.2375 1.54212 13ZM7.02441 23.0979C4.99525 22.125 5.72858 16.8312 6.85046 14.3083C8.20879 17.0323 9.98483 19.5635 12.1984 21.6312C10.1098 23.2771 8.19837 23.8291 7.02441 23.0979ZM18.9775 23.0979C16.9598 24.5708 12.4921 20.9354 10.8432 18.6458C13.9411 18.8573 17.1463 18.6458 20.113 17.7343C20.5671 20.3896 20.1546 22.3729 18.9775 23.0979ZM20.3369 16.5614C19.4046 16.8875 18.4161 17.1271 17.4244 17.3125C19.0119 14.9093 20.1838 12.3677 20.8869 9.64268C25.9244 11.5864 25.4327 14.8468 20.338 16.5625L20.3369 16.5614Z" fill="white"/>
</g>
<defs>
<clipPath id="clip0_3088_2546">
<rect width="25" height="25" fill="white" transform="translate(0.5 0.5)"/>
</clipPath>
</defs>
</svg>
