<svg width="20" height="20" viewBox="0 0 20 20" fill="none" xmlns="http://www.w3.org/2000/svg">
<path d="M5.06543 18.7504C5.06572 18.419 5.19761 18.1013 5.4321 17.8671L11.8254 11.4738C12.0189 11.2803 12.1725 11.0506 12.2772 10.7978C12.3819 10.545 12.4358 10.2741 12.4358 10.0004C12.4358 9.72679 12.3819 9.45584 12.2772 9.20304C12.1725 8.95024 12.0189 8.72055 11.8254 8.52709L5.44043 2.13792C5.21273 1.90217 5.08674 1.58642 5.08959 1.25867C5.09244 0.930923 5.2239 0.617408 5.45566 0.385648C5.68742 0.153888 6.00093 0.0224265 6.32868 0.0195785C6.65642 0.0167305 6.97218 0.142723 7.20793 0.370421L13.5929 6.75459C14.4515 7.61481 14.9336 8.7805 14.9336 9.99584C14.9336 11.2112 14.4515 12.3769 13.5929 13.2371L7.1996 19.6304C7.02503 19.8051 6.80263 19.9242 6.56047 19.9726C6.31831 20.021 6.06723 19.9966 5.83892 19.9024C5.61061 19.8083 5.41531 19.6486 5.27764 19.4436C5.13998 19.2386 5.06614 18.9974 5.06543 18.7504Z" fill="#CE82FF"/>
</svg>
