<svg width="18" height="24" viewBox="0 0 18 24" fill="none" xmlns="http://www.w3.org/2000/svg">
<path d="M15.3122 8.245C16.5342 7.442 17.3432 6.058 17.3432 4.49C17.3432 2.014 15.3282 0 12.8522 0H5.14823C2.67223 0 0.657227 2.014 0.657227 4.49C0.657227 6.058 1.46623 7.442 2.68823 8.245C1.46623 9.048 0.657227 10.432 0.657227 12C0.657227 13.568 1.46623 14.952 2.68823 15.755C1.46623 16.557 0.657227 17.941 0.657227 19.51C0.657227 21.986 2.68223 24 5.17223 24C7.68823 24 9.73623 21.964 9.73623 19.461V15.32C10.5342 16.047 11.5942 16.49 12.7552 16.49H12.8522C15.3282 16.49 17.3432 14.476 17.3432 12C17.3432 10.432 16.5342 9.048 15.3122 8.245ZM9.73523 1.471H12.8522C14.5172 1.471 15.8722 2.825 15.8722 4.49C15.8722 6.155 14.5172 7.51 12.8522 7.51H9.73523V1.471ZM2.12823 4.49C2.12823 2.825 3.48323 1.471 5.14823 1.471H8.26523V7.51H5.14823C3.48323 7.51 2.12823 6.155 2.12823 4.49ZM2.12823 12C2.12823 10.335 3.48323 8.981 5.14823 8.981H8.26523V15.02H5.12923C3.47323 15.009 2.12823 13.658 2.12823 12ZM8.26523 19.461C8.26523 21.153 6.87723 22.529 5.17223 22.529C3.49423 22.529 2.12823 21.175 2.12823 19.51C2.12823 17.845 3.48323 16.49 5.14823 16.49H8.26523V19.461ZM12.8522 15.02H12.7552C11.0902 15.02 9.73623 13.665 9.73623 12C9.73623 10.335 11.0902 8.981 12.7552 8.981H12.8522C14.5172 8.981 15.8722 10.335 15.8722 12C15.8722 13.665 14.5172 15.02 12.8522 15.02Z" fill="white"/>
</svg>
