<svg width="24" height="24" viewBox="0 0 24 24" fill="none" xmlns="http://www.w3.org/2000/svg">
<g clip-path="url(#clip0_3014_2659)">
<path d="M9.75 8.14078H9.73L8.49 12.3108H11.03L9.75 8.14078ZM9.75 8.14078H9.73L8.49 12.3108H11.03L9.75 8.14078ZM19.75 0.300781H4.25C1.9 0.300781 0 2.20078 0 4.55078V19.4508C0 21.8008 1.9 23.7008 4.25 23.7008H19.75C22.1 23.7008 24 21.8008 24 19.4508V4.55078C24 2.20078 22.1 0.300781 19.75 0.300781ZM14.7 16.8308H12.61C12.54 16.8408 12.47 16.7908 12.45 16.7208L11.63 14.3408H7.91L7.15 16.6908C7.13 16.7808 7.05 16.8408 6.96 16.8308H5.08C4.97 16.8308 4.94 16.7708 4.97 16.6508L8.19 7.38078C8.22 7.28078 8.25 7.17078 8.29 7.05078C8.33 6.84078 8.35 6.62078 8.35 6.40078C8.34 6.35078 8.38 6.30078 8.43 6.29078H11.02C11.1 6.29078 11.14 6.32078 11.15 6.37078L14.8 16.6708C14.83 16.7808 14.8 16.8308 14.7 16.8308ZM18.1 16.6808C18.1 16.7908 18.06 16.8408 17.97 16.8408H16.01C15.91 16.8408 15.86 16.7808 15.86 16.6808V8.98078C15.86 8.88078 15.9 8.84078 15.99 8.84078H17.97C18.06 8.84078 18.1 8.89078 18.1 8.98078V16.6808ZM17.89 7.65078C17.66 7.89078 17.32 8.02078 16.98 8.00078C16.65 8.01078 16.33 7.88078 16.09 7.65078C15.86 7.40078 15.74 7.07078 15.75 6.73078C15.74 6.39078 15.87 6.07078 16.11 5.84078C16.35 5.61078 16.67 5.49078 17 5.49078C17.39 5.49078 17.69 5.61078 17.91 5.84078C18.13 6.08078 18.25 6.40078 18.24 6.73078C18.25 7.07078 18.13 7.40078 17.89 7.65078ZM9.73 8.14078L8.49 12.3108H11.03L9.75 8.14078H9.73Z" fill="white"/>
</g>
<defs>
<clipPath id="clip0_3014_2659">
<rect width="24" height="24" fill="white"/>
</clipPath>
</defs>
</svg>
