<svg width="20" height="20" viewBox="0 0 20 20" fill="none" xmlns="http://www.w3.org/2000/svg">
<g clip-path="url(#clip0_3413_1896)">
<path d="M18.3333 0.833984H8.36417V3.33398H6.66667V0.833984H5V3.33398H3.3025V0.833984H1.66667C1.22464 0.833984 0.800716 1.00958 0.488155 1.32214C0.175595 1.6347 0 2.05862 0 2.50065L0 4.16732C0 4.60935 0.175595 5.03327 0.488155 5.34583C0.800716 5.65839 1.22464 5.83398 1.66667 5.83398H18.3333C18.7754 5.83398 19.1993 5.65839 19.5118 5.34583C19.8244 5.03327 20 4.60935 20 4.16732V2.50065C20 2.05862 19.8244 1.6347 19.5118 1.32214C19.1993 1.00958 18.7754 0.833984 18.3333 0.833984Z" fill="#CE82FF"/>
<path d="M18.3333 7.5H8.36417V10H6.66667V7.5H5V10H3.3025V7.5H1.66667C1.22464 7.5 0.800716 7.6756 0.488155 7.98816C0.175595 8.30072 0 8.72464 0 9.16667L0 10.8333C0 11.2754 0.175595 11.6993 0.488155 12.0118C0.800716 12.3244 1.22464 12.5 1.66667 12.5H18.3333C18.7754 12.5 19.1993 12.3244 19.5118 12.0118C19.8244 11.6993 20 11.2754 20 10.8333V9.16667C20 8.72464 19.8244 8.30072 19.5118 7.98816C19.1993 7.6756 18.7754 7.5 18.3333 7.5Z" fill="#CE82FF"/>
<path d="M18.3333 14.166H8.36417V16.666H6.66667V14.166H5V16.666H3.3025V14.166H1.66667C1.22464 14.166 0.800716 14.3416 0.488155 14.6542C0.175595 14.9667 0 15.3907 0 15.8327L0 17.4993C0 17.9414 0.175595 18.3653 0.488155 18.6779C0.800716 18.9904 1.22464 19.166 1.66667 19.166H18.3333C18.7754 19.166 19.1993 18.9904 19.5118 18.6779C19.8244 18.3653 20 17.9414 20 17.4993V15.8327C20 15.3907 19.8244 14.9667 19.5118 14.6542C19.1993 14.3416 18.7754 14.166 18.3333 14.166Z" fill="#CE82FF"/>
</g>
<defs>
<clipPath id="clip0_3413_1896">
<rect width="20" height="20" fill="white"/>
</clipPath>
</defs>
</svg>
