<svg width="20" height="20" viewBox="0 0 20 20" fill="none" xmlns="http://www.w3.org/2000/svg">
<g clip-path="url(#clip0_3413_1914)">
<mask id="mask0_3413_1914" style="mask-type:luminance" maskUnits="userSpaceOnUse" x="0" y="0" width="20" height="20">
<path d="M19.6155 0H0.384766V20H19.6155V0Z" fill="white"/>
</mask>
<g mask="url(#mask0_3413_1914)">
<path d="M6.96089 17.7435L0.971304 11.5144C0.592298 11.1202 0.384766 10.5969 0.384766 10.041C0.384766 9.4852 0.593099 8.96104 0.971304 8.56768L7.00095 2.29688L8.134 3.47521L2.10432 9.74688C2.00255 9.85272 1.98733 9.97688 1.98733 10.0418C1.98733 10.1069 2.00256 10.231 2.10512 10.3369L8.09392 16.5661L6.96089 17.7444V17.7435ZM19.029 11.5144C19.4072 11.1202 19.6155 10.5969 19.6155 10.041C19.6155 9.4852 19.4072 8.96104 19.029 8.56768L12.9994 2.29688L11.8663 3.47521L17.896 9.74688C17.9978 9.85272 18.013 9.97688 18.013 10.041C18.013 10.1052 17.9978 10.2302 17.896 10.3361L11.9064 16.5652L13.0394 17.7435L19.029 11.5144Z" fill="#CE82FF"/>
</g>
</g>
<defs>
<clipPath id="clip0_3413_1914">
<rect width="20" height="20" fill="white"/>
</clipPath>
</defs>
</svg>
