<svg width="20" height="20" viewBox="0 0 20 20" fill="none" xmlns="http://www.w3.org/2000/svg">
<path d="M15.2604 6.87083C16.2787 6.20167 16.9529 5.04833 16.9529 3.74167C16.9529 1.67833 15.2737 0 13.2104 0H6.79035C4.72702 0 3.04785 1.67833 3.04785 3.74167C3.04785 5.04833 3.72202 6.20167 4.74035 6.87083C3.72202 7.54 3.04785 8.69333 3.04785 10C3.04785 11.3067 3.72202 12.46 4.74035 13.1292C3.72202 13.7975 3.04785 14.9508 3.04785 16.2583C3.04785 18.3217 4.73535 20 6.81035 20C8.90702 20 10.6137 18.3033 10.6137 16.2175V12.7667C11.2787 13.3725 12.162 13.7417 13.1295 13.7417H13.2104C15.2737 13.7417 16.9529 12.0633 16.9529 10C16.9529 8.69333 16.2787 7.54 15.2604 6.87083ZM10.6129 1.22583H13.2104C14.5979 1.22583 15.727 2.35417 15.727 3.74167C15.727 5.12917 14.5979 6.25833 13.2104 6.25833H10.6129V1.22583ZM4.27368 3.74167C4.27368 2.35417 5.40285 1.22583 6.79035 1.22583H9.38785V6.25833H6.79035C5.40285 6.25833 4.27368 5.12917 4.27368 3.74167ZM4.27368 10C4.27368 8.6125 5.40285 7.48417 6.79035 7.48417H9.38785V12.5167H6.77452C5.39452 12.5075 4.27368 11.3817 4.27368 10ZM9.38785 16.2175C9.38785 17.6275 8.23118 18.7742 6.81035 18.7742C5.41202 18.7742 4.27368 17.6458 4.27368 16.2583C4.27368 14.8708 5.40285 13.7417 6.79035 13.7417H9.38785V16.2175ZM13.2104 12.5167H13.1295C11.742 12.5167 10.6137 11.3875 10.6137 10C10.6137 8.6125 11.742 7.48417 13.1295 7.48417H13.2104C14.5979 7.48417 15.727 8.6125 15.727 10C15.727 11.3875 14.5979 12.5167 13.2104 12.5167Z" fill="#CE82FF"/>
</svg>
