<svg width="20" height="20" viewBox="0 0 20 20" fill="none" xmlns="http://www.w3.org/2000/svg">
<g clip-path="url(#clip0_3413_1901)">
<mask id="mask0_3413_1901" style="mask-type:luminance" maskUnits="userSpaceOnUse" x="0" y="0" width="20" height="20">
<path d="M19.6155 0H0.384766V20H19.6155V0Z" fill="white"/>
</mask>
<g mask="url(#mask0_3413_1901)">
<path d="M8.19723 6.78334H8.18123L7.18765 10.2583H9.22292L8.19723 6.78334ZM8.19723 6.78334H8.18123L7.18765 10.2583H9.22292L8.19723 6.78334ZM16.2101 0.25H3.79021C1.9072 0.25 0.384766 1.83334 0.384766 3.79166V16.2083C0.384766 18.1666 1.9072 19.75 3.79021 19.75H16.2101C18.0931 19.75 19.6155 18.1666 19.6155 16.2083V3.79166C19.6155 1.83334 18.0931 0.25 16.2101 0.25ZM12.1636 14.025H10.4889C10.4328 14.0334 10.3768 13.9917 10.3607 13.9334L9.70369 11.95H6.7229L6.11393 13.9083C6.0979 13.9834 6.0338 14.0334 5.96169 14.025H4.45528C4.36713 14.025 4.3431 13.975 4.36714 13.875L6.94727 6.15C6.9713 6.06666 6.99534 5.975 7.0274 5.875C7.05944 5.7 7.07547 5.51666 7.07547 5.33334C7.06746 5.29166 7.09951 5.25 7.13957 5.24166H9.21492C9.279 5.24166 9.31107 5.26666 9.31907 5.30834L12.2438 13.8917C12.2678 13.9834 12.2438 14.025 12.1636 14.025ZM14.888 13.9C14.888 13.9917 14.8559 14.0334 14.7838 14.0334H13.2133C13.1331 14.0334 13.0931 13.9834 13.0931 13.9V7.48334C13.0931 7.4 13.1252 7.36666 13.1972 7.36666H14.7838C14.8559 7.36666 14.888 7.40834 14.888 7.48334V13.9ZM14.7197 6.375C14.5354 6.575 14.263 6.68334 13.9905 6.66666C13.7261 6.675 13.4697 6.56666 13.2774 6.375C13.0931 6.16666 12.9969 5.89166 13.0049 5.60834C12.9969 5.325 13.1011 5.05834 13.2934 4.86666C13.4857 4.675 13.7422 4.575 14.0065 4.575C14.3191 4.575 14.5595 4.675 14.7357 4.86666C14.912 5.06666 15.0082 5.33334 15.0002 5.60834C15.0082 5.89166 14.912 6.16666 14.7197 6.375ZM8.18123 6.78334L7.18765 10.2583H9.22292L8.19723 6.78334H8.18123Z" fill="#CE82FF"/>
</g>
</g>
<defs>
<clipPath id="clip0_3413_1901">
<rect width="20" height="20" fill="white"/>
</clipPath>
</defs>
</svg>
