<svg width="20" height="20" viewBox="0 0 20 20" fill="none" xmlns="http://www.w3.org/2000/svg">
<mask id="mask0_3413_1907" style="mask-type:luminance" maskUnits="userSpaceOnUse" x="0" y="0" width="20" height="20">
<path d="M19.6155 0.384766H0.384766V19.6155H19.6155V0.384766Z" fill="white"/>
</mask>
<g mask="url(#mask0_3413_1907)">
<path d="M10.0002 8.39648C7.89446 8.43418 7.89446 11.5639 10.0002 11.6016C12.106 11.5639 12.106 8.43333 10.0002 8.39648ZM10.0002 10.8003C8.95292 10.7947 8.95292 9.20341 10.0002 9.19779C11.0475 9.20341 11.0475 10.7947 10.0002 10.8003Z" fill="#CE82FF"/>
<path d="M19.616 9.99925C19.616 8.66271 18.3788 7.44795 16.2273 6.62823C17.257 1.55211 14.0061 -0.516799 10.0006 2.83897C5.99496 -0.519202 2.74496 1.55372 3.77381 6.62823C-0.710161 8.24363 -0.709359 11.7556 3.77381 13.3702C2.6985 18.6876 6.2674 20.375 10.0006 17.1651C13.7354 20.3774 17.3018 18.6843 16.2273 13.3702C18.3796 12.5505 19.616 11.3366 19.616 9.99925ZM14.5983 2.2316C16.1585 2.97839 15.5951 7.05211 14.7321 8.99279C14.2169 7.95917 13.5406 6.81653 12.8635 5.90788C12.1929 4.9848 11.4469 4.13625 10.6184 3.3598C12.2249 2.09378 13.6945 1.6715 14.5983 2.2316ZM13.8611 10.9512C13.4228 11.8117 12.8852 12.6859 12.3187 13.4712C10.7786 13.6435 9.22253 13.6435 7.68246 13.4712C6.90443 12.3966 6.22333 11.2092 5.69128 9.99925C6.22333 8.78848 6.90523 7.60259 7.68246 6.52727C9.22176 6.35339 10.7795 6.35339 12.3187 6.52727C13.0959 7.60259 13.7778 8.78848 14.3098 9.99925C14.1712 10.3126 14.0125 10.6355 13.8611 10.9512ZM5.40362 2.23079C7.51019 1.20035 10.1977 3.90307 11.6608 5.65628C9.27784 5.49362 6.81308 5.65708 4.53023 6.3566C4.18086 4.31493 4.49817 2.78849 5.40362 2.23079ZM1.18647 9.99925C1.03663 8.35902 4.66404 6.92551 6.59833 6.68192C5.37798 8.52971 4.47573 10.4856 3.93487 12.5826C2.2049 11.8999 1.18647 10.9512 1.18647 9.99925ZM5.40362 17.7669C3.84273 17.0185 4.40683 12.9463 5.26981 11.0056C6.31468 13.101 7.68086 15.0481 9.38361 16.6386C7.77699 17.9047 6.30666 18.3293 5.40362 17.7669ZM14.5983 17.7669C13.0462 18.8999 9.60953 16.1034 8.34115 14.3422C10.7241 14.5049 13.1897 14.3422 15.4718 13.641C15.8211 15.6836 15.5038 17.2092 14.5983 17.7669ZM15.644 12.7388C14.9268 12.9896 14.1665 13.1739 13.4036 13.3166C14.6248 11.4679 15.5262 9.51286 16.0671 7.41669C19.9421 8.91186 19.5638 11.4199 15.6448 12.7396L15.644 12.7388Z" fill="#CE82FF"/>
</g>
</svg>
